<svg width="100" height="100" viewBox="0 0 100 100" fill="none" xmlns="http://www.w3.org/2000/svg">
<g id="Brand2">
<path id="Polygon 3" d="M7.19873 25.2887L50 0.57735L92.8013 25.2887V74.7113L50 99.4226L7.19873 74.7113V25.2887Z" fill="#A2C1C4" stroke="white"/>
<path id="Vector 5" d="M7.5 74.5L50.5 48.5L92.5 74.5" stroke="white" stroke-width="3"/>
<path id="Vector 4" d="M50 1L50 49" stroke="white" stroke-width="3"/>
<path id="Vector 3" d="M50 49V99" stroke="white" stroke-width="3"/>
<path id="Vector 6" d="M7.5 25.5L50 49L92.5 25.5" stroke="white" stroke-width="3"/>
<path id="Vector" d="M56.438 16.3502L56.4381 16.3502C57.8353 16.357 59.3515 16.5987 60.975 17.1257L61.083 16.7931L60.9751 17.1257C64.629 18.3115 66.838 20.2469 68.2856 22.5741C69.7423 24.9159 70.4407 27.6733 71.0324 30.5321L71.0818 30.7709L71.3229 30.8073C73.2285 31.0949 74.7062 32.7555 74.7062 34.7365C74.7062 36.0562 74.0515 37.2324 73.0469 37.9581L72.8334 38.1124L72.9225 38.3602C73.196 39.1207 73.5123 39.8611 73.8859 40.5709L73.9222 40.6399L73.9844 40.687C76.1806 42.3489 78.726 42.5227 80.9477 41.8079C83.1601 41.096 85.075 39.4967 86.0401 37.5715C86.8391 35.9777 87.2677 34.0223 87.1279 32.2203C86.9882 30.4181 86.2731 28.7227 84.733 27.7383C83.7871 27.1336 82.8278 27.0152 81.983 27.2507C81.1457 27.484 80.4495 28.0566 80.0002 28.7848C79.2198 30.0496 79.1679 31.8156 80.407 33.1957C78.3183 33.1116 77.1373 32.2713 76.6307 31.183C76.0434 29.9214 76.2902 28.1836 77.3338 26.5485C78.9958 23.9448 81.3433 22.8452 83.6893 22.8862C89.6915 22.9909 96.0088 30.6778 90.5582 40.9918C89.1932 43.5747 86.6779 45.3176 83.6269 46.2104C80.5756 47.1033 77.0115 47.1376 73.6026 46.3193L72.8163 46.1305L73.2169 46.833C75.2433 50.3865 78.0843 52.9731 81.8671 55.0434C83.4496 55.9094 85.4741 56.2642 87.4348 56.1446C89.3946 56.0252 91.3332 55.4291 92.7345 54.3455C94.5562 52.937 94.3964 50.6588 93.3507 49.1248C92.8241 48.3523 92.0554 47.7329 91.152 47.4768C90.4852 47.2878 89.7595 47.3012 89.028 47.5809C89.8005 45.6404 90.9323 44.865 92.0898 44.7794C93.4452 44.6792 95.0038 45.5038 96.3434 46.9402C98.3735 49.1172 98.931 51.3119 98.5269 53.2931C98.1194 55.2907 96.7209 57.1355 94.7143 58.5618C90.6936 61.4199 84.3769 62.4958 79.3066 59.8101C76.6176 58.3857 74.7949 57.2831 73.3116 56.0121C71.8333 54.7455 70.678 53.2993 69.3443 51.1705L69.1733 50.8976L68.8871 51.0453C66.7073 52.1703 64.7607 53.9706 63.4779 56.0754C62.1951 58.1803 61.5631 60.6134 62.0599 62.9909L62.4025 62.9193L62.06 62.9909C62.4362 64.7902 63.7089 66.3808 65.2855 67.3842C66.8611 68.387 68.7964 68.8377 70.5218 68.2706C71.5882 67.9203 72.2867 67.2522 72.6392 66.4493C72.9886 65.6534 72.9864 64.7522 72.7075 63.9438C72.223 62.5396 70.8897 61.383 69.0381 61.47C70.4251 59.9037 71.822 59.5196 72.9835 59.8148C74.3301 60.1569 75.5176 61.4465 76.1225 63.2901C76.978 65.8975 76.5392 68.2186 75.3375 69.9976C74.1309 71.7838 72.1414 73.0427 69.8701 73.4804C67.6022 73.9176 65.0608 73.5341 62.7561 72.0432C60.4522 70.5527 58.3637 67.9411 57.0337 63.8876C55.3732 58.8265 57.6983 53.3503 62.0809 49.2448L62.5868 48.7708L61.9051 48.6451C58.5457 48.0258 55.4854 48.1557 51.7302 49.3656L51.8376 49.6988L51.7302 49.3656C49.7495 50.0039 47.7558 51.5278 46.4296 53.4579C45.1019 55.39 44.4148 57.7741 45.1384 60.1205C46.0176 62.9715 47.9291 63.9934 49.4767 63.6451C50.235 63.4744 50.8725 62.9709 51.1694 62.2377C51.3884 61.6968 51.4119 61.0578 51.1945 60.3718C52.2584 60.7916 52.9786 61.3317 53.4277 61.9083C53.9699 62.6045 54.1343 63.3747 54.0159 64.1143C53.7763 65.6105 52.3592 67.0399 50.3917 67.3733C47.4514 67.8715 45.1316 67.0948 43.4673 65.5868C41.7939 64.0706 40.7546 61.7884 40.4463 59.2379C39.8293 54.1323 42.1531 48.0707 47.9587 45.2179L47.9588 45.2179C52.3433 43.0631 55.431 42.1646 58.9405 42.1011L58.9926 41.406C49.4141 39.7834 45.4542 33.467 45.5266 27.6168C45.5995 21.7336 49.7257 16.3165 56.438 16.3502ZM73.1395 34.7367C73.1395 33.3948 72.0764 32.3305 70.7349 32.3305C69.3926 32.3305 68.3342 33.3955 68.3342 34.7366C68.3342 36.0777 69.3927 37.1428 70.735 37.1428C72.0765 37.1428 73.1395 36.0787 73.1395 34.7367ZM65.2053 36.0114C65.2053 34.6695 64.1423 33.6052 62.8008 33.6052C61.4592 33.6052 60.3961 34.6693 60.3961 36.0113C60.3961 37.3532 61.4591 38.4175 62.8007 38.4175C64.1422 38.4175 65.2053 37.3534 65.2053 36.0114Z" fill="black" stroke="white" stroke-width="0.7"/>
<path id="Vector 7" d="M7.5 25.5L50 49L84.5 30" stroke="white" stroke-width="3"/>
</g>
</svg>
