<svg width="557" height="558" viewBox="0 0 557 558" fill="none" xmlns="http://www.w3.org/2000/svg">
<ellipse cx="280.5" cy="276.5" rx="276.5" ry="275.5" fill="#003538"/>
<path d="M308.505 21.958C354.905 18.358 404.167 32.1667 422.5 40C418.167 35.8333 403.584 28.6752 386.505 21.958L385.55 21.5821C363.799 13.022 323.218 -2.94885 270.5 0.499997C217 4 186.505 13.958 148.505 32.458C110.505 50.958 69.5511 86.7311 52.0007 118C36.0044 146.5 -0.494914 198.458 0.00508554 284.458C0.505086 370.458 32.5051 406.458 36.0051 416.958C39.5051 427.458 88.0051 497.458 148.505 528.458C209.005 559.458 279.505 569.458 377.505 541.458C455.905 519.058 510.505 438.791 528.005 401.458C531 395.069 534.2 380.6 531 363C527 341 498.005 327.958 481.505 322.958C465.005 317.958 434 317 414.505 354.458C398.957 384.333 365.005 409.958 343.505 420.458C322.005 430.958 238 449 184.5 402.5C131 356 117.005 329.958 111.505 263.458C106.005 196.958 137.505 123.958 175.505 84.458C213.505 44.958 250.505 26.458 308.505 21.958Z" fill="#E66E00"/>
<path d="M199 163.5C169.359 184.608 150.333 215.5 145 229C145 201.4 165.333 158.167 175.5 140C187.5 118.333 221.4 72.6 271 57C344.5 33.8831 354 42 392.5 49.5C431 57 438.5 59.3725 462 75.5C487.5 93 519.5 123.5 519.5 153.5C519.5 185.535 502.5 201.143 483 209.5C463.5 217.857 429 211.5 415.5 190.5C404.7 173.7 385.667 161.167 374.5 153.5C361.5 145 325.049 122.642 287 130.5C241 140 232 140 199 163.5Z" fill="#4FB6E1"/>
</svg>
