<svg width="155" height="213" viewBox="0 0 155 213" fill="none" xmlns="http://www.w3.org/2000/svg">
<path d="M107 24.5C107 38.031 91.5833 42.5 77.5 42.5C63.4167 42.5 56 38.031 56 24.5C56 10.969 67.4167 0 81.5 0C95.5833 0 107 10.969 107 24.5Z" fill="black"/>
<path d="M74.5 44.5001C38.5 32.9001 47.5 71.3334 56.5 92.0001C75.3001 122 42.6667 168.167 24 187.5H139.5C117.833 155.667 79.5 90.9001 99.5 86.5C124.5 80.9999 119.5 59.0001 74.5 44.5001Z" fill="black" stroke="black"/>
<path d="M0.5 188H23.5H154.5V212.5H0.5V188Z" fill="black" stroke="black"/>
<rect x="0.5" y="196.5" width="154" height="6" fill="black" stroke="black"/>
<circle cx="98" cy="143" r="16" fill="white"/>
</svg>
