<svg width="47" height="39" viewBox="0 0 47 39" fill="none" xmlns="http://www.w3.org/2000/svg">
<path d="M46.5 12.5L2 38H46.5V12.5Z" fill="black" stroke="black"/>
<path d="M19.1749 28.5094C18.1047 29.1412 16.8276 29.323 15.6236 29.0148C14.4196 28.7066 13.3868 27.9337 12.7517 26.8654C12.4431 26.339 12.2421 25.7566 12.1603 25.1519C12.0786 24.5472 12.1177 23.9323 12.2754 23.3429C12.4331 22.7534 12.7063 22.2012 13.0791 21.7181C13.452 21.2351 13.917 20.8309 14.4472 20.529C14.9668 20.209 15.5447 19.9954 16.1474 19.9004C16.7502 19.8055 17.3658 19.8313 17.9585 19.9761C18.5513 20.121 19.1093 20.3821 19.6004 20.7443C20.0914 21.1065 20.5056 21.5626 20.819 22.0862C21.4508 23.1564 21.6326 24.4335 21.3244 25.6376C21.0162 26.8416 20.2433 27.8743 19.1749 28.5094ZM15.131 21.6832C14.5787 22.0104 14.1358 22.4941 13.8584 23.073C13.5809 23.6519 13.4814 24.3 13.5723 24.9355C13.6633 25.571 13.9406 26.1652 14.3692 26.6431C14.7979 27.121 15.3586 27.461 15.9805 27.6202C16.6024 27.7793 17.2576 27.7505 17.8631 27.5374C18.4686 27.3242 18.9974 26.9363 19.3824 26.4226C19.7675 25.909 19.9916 25.2927 20.0264 24.6517C20.0612 24.0107 19.9051 23.3737 19.5779 22.8214C19.1378 22.0823 18.4228 21.5476 17.5895 21.3343C16.7561 21.1209 15.8721 21.2464 15.131 21.6832Z" fill="black"/>
<path d="M30.9656 21.5245C29.8953 22.1563 28.6182 22.338 27.4142 22.0298C26.2102 21.7217 25.1775 20.9487 24.5424 19.8804C23.9086 18.8106 23.7258 17.5329 24.0341 16.3283C24.3424 15.1237 25.1166 14.0909 26.1864 13.4572C27.2562 12.8234 28.5339 12.6406 29.7385 12.9489C30.9431 13.2572 31.9759 14.0314 32.6096 15.1012C33.2415 16.1715 33.4232 17.4486 33.115 18.6526C32.8068 19.8566 32.0339 20.8894 30.9656 21.5245ZM26.9217 14.6983C26.3694 15.0255 25.9265 15.5091 25.649 16.088C25.3716 16.6669 25.272 17.3151 25.363 17.9506C25.4539 18.586 25.7312 19.1803 26.1599 19.6581C26.5885 20.136 27.1493 20.476 27.7712 20.6352C28.3931 20.7944 29.0482 20.7656 29.6537 20.5524C30.2593 20.3393 30.788 19.9513 31.1731 19.4377C31.5581 18.924 31.7822 18.3077 31.817 17.6667C31.8518 17.0257 31.6957 16.3888 31.3685 15.8365C30.9284 15.0973 30.2135 14.5626 29.3801 14.3493C28.5467 14.136 27.6628 14.2615 26.9217 14.6983Z" fill="black"/>
<path d="M23.8564 21.5527L17.0302 25.5966C16.9242 25.659 16.8041 25.6932 16.6811 25.696C16.5582 25.6989 16.4366 25.6703 16.3279 25.6129C16.2191 25.5555 16.1269 25.4713 16.0598 25.3682C15.9928 25.2652 15.9532 25.1467 15.9448 25.024L15.3714 16.9803L16.8068 16.8844L17.326 23.8034L23.1468 20.355L23.8564 21.5527Z" fill="black"/>
<path d="M15.7288 16.3242L22.555 12.2802L23.2572 13.4655L16.431 17.5094L15.7288 16.3242Z" fill="black"/>
<path d="M29.4414 18.2441C29.3138 18.3196 29.1661 18.3539 29.0183 18.3425C28.8705 18.331 28.7299 18.2743 28.6154 18.1801L20.7512 11.6554L19.3301 12.4973C19.1655 12.5948 18.969 12.6229 18.7836 12.5754C18.5983 12.528 18.4394 12.4089 18.3419 12.2443C18.26 12.0809 18.2432 11.8924 18.2949 11.717C18.3466 11.5416 18.463 11.3924 18.6206 11.2996L20.4823 10.1967C20.6016 10.1148 20.744 10.0732 20.8886 10.078C21.0333 10.0828 21.1726 10.1338 21.2862 10.2234L29.5358 17.0732C29.681 17.1951 29.7723 17.3693 29.79 17.5581C29.8077 17.7469 29.7503 17.935 29.6303 18.0818C29.5772 18.1465 29.5133 18.2014 29.4414 18.2441Z" fill="black"/>
<path d="M16.4567 17.5529C16.3753 17.6017 16.2851 17.634 16.1912 17.6479C16.0973 17.6618 16.0016 17.6571 15.9095 17.6339L14.2259 17.1977L12.6186 18.1499C12.4541 18.2474 12.2575 18.2755 12.0722 18.2281C11.8868 18.1807 11.728 18.0615 11.6305 17.897C11.5759 17.8173 11.5389 17.7269 11.5221 17.6318C11.5052 17.5367 11.5089 17.4391 11.5329 17.3455C11.5568 17.252 11.6005 17.1646 11.6609 17.0893C11.7214 17.0139 11.7972 16.9524 11.8834 16.9088L13.7451 15.8059C13.9126 15.6991 14.1146 15.6604 14.3098 15.6977L16.2861 16.2036C16.4706 16.2514 16.6286 16.3702 16.7258 16.5342C16.8229 16.6981 16.8512 16.8938 16.8045 17.0786C16.7831 17.1776 16.7411 17.2711 16.6811 17.3528C16.6212 17.4345 16.5447 17.5027 16.4567 17.5529Z" fill="black"/>
</svg>
