<svg width="42" height="32" viewBox="0 0 42 32" fill="none" xmlns="http://www.w3.org/2000/svg">
<path d="M35.5373 2.6594C32.8772 1.41972 29.9972 0.519956 26.9971 9.19723e-05C26.9708 -0.000749014 26.9446 0.00418586 26.9204 0.0145497C26.8962 0.0249136 26.8746 0.0404547 26.8571 0.0600767C26.4971 0.719904 26.077 1.57968 25.797 2.23951C22.6149 1.75963 19.3789 1.75963 16.1968 2.23951C15.9168 1.55968 15.4968 0.719904 15.1167 0.0600767C15.0967 0.0200872 15.0367 9.19723e-05 14.9767 9.19723e-05C11.9767 0.519956 9.11658 1.41972 6.4365 2.6594C6.4165 2.6594 6.3965 2.67939 6.3765 2.69939C0.936354 10.8373 -0.563687 18.7552 0.176333 26.5931C0.176333 26.6331 0.196334 26.6731 0.236335 26.6931C3.83643 29.3324 7.29653 30.932 10.7166 31.9917C10.7766 32.0117 10.8366 31.9917 10.8566 31.9517C11.6566 30.852 12.3767 29.6923 12.9967 28.4726C13.0367 28.3927 12.9967 28.3127 12.9167 28.2927C11.7767 27.8528 10.6966 27.3329 9.63659 26.7331C9.55659 26.6931 9.55659 26.5731 9.61659 26.5132C9.8366 26.3532 10.0566 26.1732 10.2766 26.0133C10.3166 25.9733 10.3766 25.9733 10.4166 25.9933C17.2968 29.1325 24.717 29.1325 31.5172 25.9933C31.5572 25.9733 31.6172 25.9733 31.6572 26.0133C31.8772 26.1932 32.0972 26.3532 32.3172 26.5331C32.3972 26.5931 32.3972 26.7131 32.2972 26.7531C31.2572 27.3729 30.1572 27.8728 29.0171 28.3127C28.9371 28.3327 28.9171 28.4327 28.9371 28.4926C29.5771 29.7123 30.2972 30.872 31.0772 31.9717C31.1372 31.9917 31.1972 32.0117 31.2572 31.9917C34.6973 30.932 38.1574 29.3324 41.7575 26.6931C41.7975 26.6731 41.8175 26.6331 41.8175 26.5931C42.6975 17.5355 40.3574 9.67756 35.6173 2.69939C35.5973 2.67939 35.5773 2.6594 35.5373 2.6594ZM14.0367 21.8144C11.9767 21.8144 10.2566 19.9149 10.2566 17.5755C10.2566 15.2361 11.9367 13.3366 14.0367 13.3366C16.1568 13.3366 17.8368 15.2561 17.8168 17.5755C17.8168 19.9149 16.1368 21.8144 14.0367 21.8144ZM27.9771 21.8144C25.917 21.8144 24.197 19.9149 24.197 17.5755C24.197 15.2361 25.877 13.3366 27.9771 13.3366C30.0972 13.3366 31.7772 15.2561 31.7572 17.5755C31.7572 19.9149 30.0972 21.8144 27.9771 21.8144Z" fill="#7289DA"/>
</svg>
