<svg width="41" height="39" viewBox="0 0 41 39" fill="none" xmlns="http://www.w3.org/2000/svg">
<path d="M31.3906 0H9.60938C4.30226 0 0 4.0924 0 9.14062V29.8594C0 34.9076 4.30226 39 9.60938 39H31.3906C36.6977 39 41 34.9076 41 29.8594V9.14062C41 4.0924 36.6977 0 31.3906 0Z" fill="#2396ED"/>
<path d="M22.612 18.6047H25.9299V15.7491H22.612V18.6047ZM18.6622 18.6047H21.98V15.7491H18.6622V18.6047ZM14.7912 18.6047H18.1092V15.7491H14.7912V18.6047ZM10.9203 18.6047H14.1594V15.7491H10.9204L10.9203 18.6047ZM6.97048 18.6047H10.2884V15.7491H6.97048V18.6047ZM10.9204 15.148H14.1593V12.2926H10.9204V15.148ZM14.7914 15.148H18.1092V12.2926H14.7912L14.7914 15.148ZM18.6622 15.148H21.98V12.2926H18.6622V15.148ZM18.6622 11.6913H21.98V8.83594H18.6622V11.6915V11.6913ZM36.5156 17.3274C36.5156 17.3274 35.0936 16.0499 32.1707 16.5008C31.8548 14.3215 29.4058 13.0441 29.4058 13.0441C29.4058 13.0441 27.1149 15.6742 28.7738 18.6048C28.2999 18.8303 27.5099 19.1309 26.3249 19.1309H4.60065C4.20554 20.5586 4.20554 30.0266 15.1072 30.0266C22.928 30.0266 28.7738 26.5701 31.5388 20.2579C35.6466 20.5585 36.5156 17.3274 36.5156 17.3274Z" fill="white"/>
</svg>
