<svg width="42" height="39" viewBox="0 0 42 39" fill="none" xmlns="http://www.w3.org/2000/svg">
<path d="M6.90205 0H36.5808C37.7197 0.0575326 38.8815 0.87412 38.939 2.08199C39.008 3.76157 38.939 5.4526 38.9619 7.14363C38.9848 15.2304 38.9619 23.3288 38.9734 31.4156C29.6902 31.427 20.3953 31.4041 11.1121 31.427C9.72022 31.4616 8.31685 31.5306 6.92494 31.4156C6.85596 20.9589 6.89029 10.5025 6.90205 0.0575293V0ZM18.1419 7.12321C18.1419 12.8864 18.1766 18.6495 18.1305 24.4127C19.6028 24.5738 21.1098 24.6196 22.5707 24.3551C22.4903 22.0891 22.5707 19.8113 22.5246 17.5335C24.3997 17.338 26.2862 17.4874 28.1727 17.4299C28.1498 16.4175 28.1498 15.4169 28.1727 14.4045C26.2976 14.393 24.4226 14.4274 22.5361 14.3816C22.5132 13.0243 22.5246 11.6553 22.5361 10.2863C24.7678 10.2863 27.0109 10.2748 29.2426 10.2977C29.2541 9.22779 29.2426 8.15818 29.2312 7.08826C25.5386 7.13465 21.846 7.10032 18.1419 7.12321Z" fill="#FF6902"/>
<path d="M0 4.21288C2.2546 2.78632 4.55528 1.4405 6.84452 0.0717773C6.83307 10.5285 6.79843 20.9849 6.86741 31.4298C5.80924 32.0509 4.77366 32.6952 3.71549 33.3163C2.47328 34.0639 1.24221 34.8233 0 35.5595V4.21288Z" fill="#FF9548"/>
<path d="M18.1178 7.12317C21.8218 7.10028 25.5144 7.13461 29.2185 7.10028C29.2185 8.1702 29.2299 9.23981 29.2299 10.3097C26.9982 10.2983 24.7551 10.2983 22.5234 10.2983C22.5119 11.6556 22.5119 13.0246 22.5234 14.3936C24.3984 14.4283 26.2849 14.4051 28.16 14.4165C28.1371 15.4289 28.1371 16.4295 28.16 17.4419C26.2735 17.4994 24.387 17.3497 22.5119 17.5455C22.558 19.8116 22.4773 22.0894 22.558 24.3672C21.0971 24.6316 19.5901 24.5858 18.1178 24.4247C18.1524 18.6495 18.1178 12.8863 18.1178 7.12317Z" fill="#FFFEFE"/>
<path d="M38.9171 7.12076C39.9409 7.10931 40.9762 7.10931 42 7.10931C41.9771 17.5428 42 27.9763 41.9886 38.4216H5.82162C4.87821 38.2722 3.958 37.6507 3.77396 36.673C3.58991 35.5573 3.72787 34.407 3.71642 33.2795C4.77459 32.6584 5.82162 32.0141 6.86834 31.393C8.26026 31.5081 9.66362 31.4391 11.0555 31.4044C20.3387 31.3816 29.6336 31.4044 38.9168 31.393C38.9171 23.306 38.9285 15.2075 38.9171 7.12076Z" fill="#933B00"/>
</svg>
