<svg width="43" height="43" viewBox="0 0 43 43" fill="none" xmlns="http://www.w3.org/2000/svg">
<path d="M41.6073 19.3146L23.0917 0.799699C22.0261 -0.266566 20.2967 -0.266566 19.2295 0.799699L15.385 4.64484L20.2621 9.52198C21.3959 9.13935 22.6953 9.396 23.5987 10.2993C24.5067 11.2084 24.7614 12.5189 24.3693 13.6564L29.0697 18.3571C30.2069 17.9651 31.5194 18.2184 32.4271 19.1281C33.697 20.397 33.697 22.4539 32.4271 23.7234C32.1253 24.0253 31.767 24.2648 31.3727 24.4282C30.9783 24.5916 30.5557 24.6757 30.1288 24.6757C29.7019 24.6757 29.2792 24.5916 28.8849 24.4282C28.4905 24.2648 28.1322 24.0253 27.8305 23.7234C27.3771 23.2697 27.068 22.6921 26.9422 22.0632C26.8164 21.4343 26.8794 20.7822 27.1233 20.189L22.74 15.8057L22.7393 27.3421C23.0574 27.4987 23.3477 27.7062 23.599 27.9562C24.8682 29.2251 24.8682 31.2813 23.599 32.5528C22.3295 33.8217 20.2719 33.8217 19.0037 32.5528C17.7345 31.2817 17.7345 29.2254 19.0037 27.9562C19.3078 27.6517 19.6695 27.4107 20.0676 27.2474V15.6041C19.6691 15.4413 19.3074 15.2001 19.0037 14.895C18.0423 13.9342 17.8108 12.5232 18.304 11.3421L13.4957 6.53382L0.799935 19.2289C0.287737 19.7413 0 20.4361 0 21.1605C0 21.885 0.287737 22.5798 0.799935 23.0922L19.3158 41.607C20.3821 42.6733 22.1108 42.6733 23.1787 41.607L41.6076 23.1782C42.1197 22.6657 42.4073 21.9708 42.4073 21.2463C42.4072 20.5218 42.1195 19.827 41.6073 19.3146Z" fill="#F34F29"/>
</svg>
