<svg width="43" height="42" viewBox="0 0 43 42" fill="none" xmlns="http://www.w3.org/2000/svg">
<path d="M21.5 6.10352e-05C18.6766 6.10352e-05 15.8808 0.556728 13.2723 1.63828C10.6638 2.71983 8.29366 4.30508 6.2972 6.30352C2.26517 10.3396 0 15.8136 0 21.5214C0 31.0339 6.1705 39.1044 14.706 41.9667C15.781 42.1389 16.125 41.4717 16.125 40.8907V37.2535C10.1695 38.5448 8.901 34.3697 8.901 34.3697C7.912 31.8732 6.5145 31.206 6.5145 31.206C4.558 29.8717 6.665 29.9148 6.665 29.9148C8.815 30.0654 9.9545 32.1315 9.9545 32.1315C11.825 35.4027 14.9855 34.4342 16.211 33.9177C16.4045 32.5188 16.9635 31.5719 17.5655 31.0339C12.7925 30.4958 7.783 28.645 7.783 20.4454C7.783 18.0565 8.6 16.1411 9.9975 14.6131C9.7825 14.075 9.03 11.8368 10.2125 8.93143C10.2125 8.93143 12.0185 8.35035 16.125 11.1266C17.8235 10.6531 19.6725 10.4164 21.5 10.4164C23.3275 10.4164 25.1765 10.6531 26.875 11.1266C30.9815 8.35035 32.7875 8.93143 32.7875 8.93143C33.97 11.8368 33.2175 14.075 33.0025 14.6131C34.4 16.1411 35.217 18.0565 35.217 20.4454C35.217 28.6665 30.186 30.4743 25.3915 31.0123C26.1655 31.6795 26.875 32.9923 26.875 34.9938V40.8907C26.875 41.4717 27.219 42.1604 28.3155 41.9667C36.851 39.0829 43 31.0339 43 21.5214C43 18.6952 42.4439 15.8966 41.3634 13.2856C40.2829 10.6745 38.6993 8.30197 36.7028 6.30352C34.7063 4.30508 32.3362 2.71983 29.7277 1.63828C27.1192 0.556728 24.3234 6.10352e-05 21.5 6.10352e-05Z" fill="Black"/>
</svg>
