<svg width="43" height="32" viewBox="0 0 43 32" fill="none" xmlns="http://www.w3.org/2000/svg">
<path d="M9.69448 32V15.5193L4.58331 10.8434L0 8.24854V29.0916C0 30.7009 1.30383 32 2.90841 32H9.69448Z" fill="#4285F4"/>
<path d="M32.9611 32H39.7472C41.3566 32 42.6556 30.696 42.6556 29.0916V8.24872L37.4643 11.2208L32.9611 15.5193V32Z" fill="#34A853"/>
<path d="M9.69448 15.5193L8.99899 9.07979L9.69448 2.91656L21.3278 11.6416L32.9611 2.91656L33.739 8.74705L32.9611 15.5193L21.3278 24.2443L9.69448 15.5193Z" fill="#EA4335"/>
<path d="M32.9611 2.91658V15.5193L42.6556 8.24853V4.37071C42.6556 0.774142 38.55 -1.27616 35.6757 0.88078L32.9611 2.91658Z" fill="#FBBC04"/>
<path d="M0 8.24854L4.45867 11.5927L9.69448 15.5193V2.9166L6.97985 0.880795C4.1006 -1.27631 0 0.774156 0 4.37055V8.24854Z" fill="#C5221F"/>
</svg>
