<svg width="450" height="602" viewBox="0 0 450 602" fill="none" xmlns="http://www.w3.org/2000/svg">
<path d="M224.012 486.638C222.948 486.75 221.883 486.862 220.596 486.673C220.368 485.814 220.585 484.944 220.317 484.752C219.304 484.027 218.133 483.522 217.439 482.86C219.898 482.384 223.296 484.556 223.52 479.999C224.899 480.008 225.901 480.015 226.999 480.369C228.174 481.261 229.285 482.323 230.33 482.261C235.187 481.971 240.026 481.371 244.99 481.246C246.736 482.081 248.365 482.552 249.993 483.023C250.091 482.447 250.189 481.87 250.288 481.294C248.484 481.157 246.68 481.02 245.17 480.648C251.077 478.916 256.796 477.732 262.285 475.869C287.547 467.295 308.555 452.475 324.966 431.5C343.501 407.809 354.953 381.126 355.153 350.681C355.52 294.71 355.259 238.734 355.41 182.761C355.421 178.628 353.922 177.789 350.179 177.815C329.189 177.962 308.198 177.893 287.208 177.896C268.716 177.898 250.225 177.886 231.733 177.912C229.551 177.915 226.732 177.114 226.656 180.747C225.624 180.645 224.2 180.652 224.167 180.867C223.947 182.335 223.999 183.847 224 185.345C224.125 282.568 224.255 379.79 224.329 477.012C224.33 477.672 223.557 478.332 223.066 478.529C222.986 378.151 222.986 278.235 222.986 178.257C178.555 178.257 134.699 178.257 90.7308 178.257C90.6037 179.303 90.457 179.948 90.4571 180.592C90.4652 236.408 90.2997 292.226 90.6734 348.04C90.7408 358.104 92.3805 368.289 94.4466 378.177C97.4029 392.326 103.539 405.35 111.075 417.935C111.692 418.816 112.342 419.426 113.001 420.015C113.009 419.994 112.964 419.993 112.951 420.32C113.616 421.446 114.293 422.245 114.985 423.022C114.999 423 114.952 423.025 114.968 423.374C117.299 426.499 119.615 429.277 121.964 432.028C121.997 432.002 121.939 432.063 121.903 432.406C123.561 434.517 125.254 436.285 126.974 438.026C127 438 126.944 438.049 126.956 438.391C130.021 441.494 133.073 444.255 136.408 447.186C141.192 451.246 145.443 455.479 150.237 458.964C168.956 472.575 190.222 479.592 212.795 482.695C211.727 483.894 210.86 484.89 209.992 485.886C184.465 483.297 161.545 473.925 141.684 457.913C104.988 428.329 86.163 389.854 86.1692 342.468C86.1787 269.157 86.1782 195.847 86.182 122.536C86.1821 120.242 86.182 117.948 86.182 115.301C177.364 115.301 268.095 115.301 359.458 115.301C359.531 116.756 359.678 118.333 359.678 119.909C359.679 195.719 359.203 271.533 359.815 347.338C360.254 401.763 320.743 462.026 262.349 480.242C256.501 482.066 250.476 483.323 244.13 484.567C243.515 484.476 243.304 484.662 243.093 484.848C240.985 485.23 238.876 485.612 236.484 485.648C232.203 485.269 228.207 485.229 224.211 485.263C224.141 485.263 224.078 486.16 224.012 486.638ZM194.5 173.689C248.072 173.689 301.645 173.689 355.185 173.689C355.185 155.106 355.185 137.371 355.185 119.219C353.128 119.219 351.487 119.219 349.846 119.219C325.851 119.22 301.857 119.222 277.862 119.222C217.542 119.222 157.221 119.221 96.9009 119.223C90.3055 119.223 90.3045 119.23 90.3009 126.028C90.2933 140.191 90.4418 154.358 90.1848 168.517C90.1083 172.725 91.3947 173.799 95.5215 173.779C128.18 173.615 160.84 173.688 194.5 173.689ZM124.5 176.978C153.915 176.978 183.331 176.978 212.747 176.978C212.746 176.735 212.745 176.491 212.744 176.248C173.249 176.248 133.755 176.248 94.2596 176.248C94.2565 176.491 94.2534 176.735 94.2503 176.978C104 176.978 113.75 176.978 124.5 176.978ZM220.866 176.454C221.246 176.523 221.625 176.591 222.005 176.66C221.716 176.496 221.426 176.332 220.866 176.454Z" fill="#221E1D"/>
<path d="M110.932 544.951C99.2476 548.502 87.1985 551.168 75.9572 555.796C55.2814 564.309 35.0801 573.974 14.6842 583.165C13.3453 583.768 12.0332 584.431 10.2326 585.294C7.04556 575.66 3.94267 566.28 0.53125 555.968C14.3201 549.582 27.8404 542.984 41.6307 537.009C65.6822 526.588 90.6721 518.965 116.702 513.485C116.782 521.832 116.027 529.778 116.078 537.719C116.105 541.849 114.892 544.126 110.932 544.951ZM71.3781 549.143C69.572 549.788 67.766 550.432 66.0651 551.04C64.1905 547.972 64.3381 546.092 67.7092 545.016C68.7943 544.669 69.5686 543.35 70.4852 542.475C69.0999 542.335 67.4637 541.654 66.3777 542.158C63.434 543.525 62.4542 542.397 62.1746 539.675C67.7817 536.619 67.7817 536.619 67.1877 533.857C63.9155 535.036 60.6869 536.199 57.1211 537.484C59.172 543.566 61.1614 549.465 63.1919 555.487C66.1479 554.549 68.681 553.829 71.1521 552.937C73.2767 552.17 74.0995 550.915 71.3781 549.143ZM84.3947 548.064C82.1732 541.434 82.6276 534.828 85.3404 528.111C78.9811 528.541 80.8913 533.663 79.3825 536.659C76.2865 535.255 74.905 529.525 69.6939 533.376C74.8797 537.363 80.0489 541.103 81.0221 548.008C81.0622 548.293 82.8125 548.336 84.3947 548.064ZM56.5312 558.234C58.272 557.401 61.6673 557.657 59.3285 553.891C57.345 554.504 55.4756 555.082 53.4197 555.717C51.5006 550.792 49.6112 545.943 47.6819 540.992C44.0395 543.525 45.2243 549.103 51.3335 560.11C52.8122 559.627 54.354 559.123 56.5312 558.234Z" fill="#019F09"/>
<path d="M325.137 511.071C347.073 517.378 369.362 522.689 390.842 530.285C410.753 537.326 429.801 546.809 449.642 555.396C446.117 566.093 442.989 575.587 439.96 584.78C423.721 577.274 408.277 569.1 392.074 562.912C372.336 555.375 351.96 549.51 331.276 542.718C330.144 542.422 329.598 542.329 329.052 542.237C328.628 542.122 328.203 542.006 327.245 541.536C326.187 531.144 325.662 521.108 325.137 511.071ZM371.261 547.171C372.216 549.446 371.422 553.188 376.16 552.565C375.635 549.679 375.116 546.824 374.596 543.969C375.133 544.149 375.669 544.329 376.205 544.509C377.492 542.064 380.114 539.428 379.799 537.21C379.043 531.884 373.585 532.478 369.519 530.725C367.771 536.216 365.995 541.328 364.61 546.543C364.336 547.577 365.566 549.01 366.102 550.259C366.543 550.055 366.984 549.852 367.426 549.648C368.215 547.451 369.004 545.254 369.793 543.057C370.059 543.106 370.326 543.156 370.593 543.205C370.753 544.267 370.914 545.328 371.261 547.171ZM398.927 556.456C397.874 557.667 396.821 558.878 394.959 561.021C397.354 561.021 398.896 561.488 399.86 560.94C404.139 558.507 407.502 559.785 409.032 564.362C409.448 565.606 411.05 566.453 412.108 567.481C413.156 561.078 413.261 555.446 413.073 549.824C413.032 548.596 412.158 546.618 411.29 546.383C410.07 546.054 408.11 546.622 407.149 547.529C404.386 550.136 401.966 553.107 398.927 556.456ZM379.52 552.777C381.338 555.722 387.978 557.975 391.782 556.938C395.424 555.944 398.38 551.392 398.125 546.755C397.69 538.834 390.965 538.395 385.185 535.995C383.338 541.53 381.58 546.8 379.52 552.777ZM415.946 566.939C417.424 570.323 423.41 573.062 427.836 572.071C432.535 571.02 434.564 567.476 435.007 563.032C435.572 557.373 432.431 554.444 422.832 551.432C420.622 556.354 418.396 561.314 415.946 566.939ZM362.498 531.946C363.352 531.265 364.206 530.584 365.709 529.386C361.29 528.101 357.895 527.114 354.268 526.06C352.45 532.44 350.75 538.403 348.998 544.548C352.749 545.56 356.147 546.477 359.546 547.394C359.853 546.8 360.161 546.207 360.468 545.613C358.351 544.379 356.234 543.145 353.926 541.8C354.132 540.944 354.295 539.974 354.617 539.061C354.769 538.631 355.228 538.31 355.523 537.968C361.244 539.037 361.244 539.037 362.351 536.395C360.248 535.617 358.148 534.84 356.103 534.084C356.731 529.146 359.436 530.962 362.498 531.946ZM339.21 535.921C339.117 532.093 339.279 528.232 338.796 524.453C338.619 523.065 336.915 521.871 335.908 520.588C335.503 520.904 335.098 521.219 334.692 521.535C335.144 527.321 335.5 533.118 336.138 538.884C336.247 539.865 337.411 541.116 338.378 541.485C339.067 541.749 340.6 541.006 341.14 540.263C344.616 535.482 347.922 530.578 351.283 525.714C350.959 525.27 350.635 524.826 350.311 524.382C348.798 525.223 346.849 525.72 345.861 526.974C343.618 529.822 341.848 533.043 339.21 535.921Z" fill="#02A110"/>
<path d="M325.091 510.674C325.662 521.108 326.187 531.144 326.911 541.547C327.111 541.912 326.902 542.017 326.5 542.039C325.453 542.042 324.809 542.022 324.085 541.545C323.375 529.513 322.745 517.94 322.088 505.86C254.41 493.763 187.374 495.25 119.849 507.193C119.216 520.802 118.609 533.877 117.796 547.087C117.329 547.431 117.146 547.697 117.042 548.017C117.042 548.017 117.016 548.02 116.685 548.017C115.913 548.01 115.474 548.005 115.034 548C114.978 547.372 114.922 546.744 114.768 545.016C114.003 546.331 113.653 546.932 113.297 547.546C112.633 546.609 112.067 545.811 111.217 544.982C114.892 544.126 116.105 541.849 116.078 537.719C116.027 529.778 116.782 521.832 117.094 513.429C117.234 505.719 120.105 503.506 128.398 502.541C140.846 501.091 153.211 498.931 165.651 497.394C172.219 496.582 178.866 496.198 185.487 496.063C198.406 495.799 211.332 495.908 224.254 495.735C229.554 495.663 234.862 494.9 240.145 495.08C252.525 495.501 264.886 496.45 277.266 496.907C290.292 497.388 302.922 500.262 315.634 502.7C316.285 502.824 316.95 502.942 317.608 502.94C324.838 502.923 324.838 502.916 325.091 510.674Z" fill="#EBF8F1"/>
<path d="M50.4985 198.565C44.4442 200.353 38.7555 202.016 33.0668 203.679C33.0625 204.006 33.0582 204.333 33.0539 204.66C39.2514 205.713 45.4489 206.765 51.8803 207.857C51.8803 209.75 51.8803 211.495 51.8803 213.869C42.158 212.012 32.6506 210.196 23.042 208.361C23.042 206.04 23.042 204.077 23.042 201.631C29.276 199.754 35.5626 197.86 42.5893 195.744C37.4804 193.763 33.2718 191.692 28.8259 190.526C24.1181 189.291 22.4255 186.944 24.2101 181.754C33.3836 180.641 42.9035 179.487 52.8157 178.285C52.8157 180.181 52.8157 181.905 52.8157 184.262C46.5593 184.874 40.0652 185.51 33.5712 186.145C33.5007 186.399 33.4303 186.654 33.3598 186.908C39.0015 189.059 44.6594 191.168 50.2786 193.375C53.4975 194.64 54.2296 196.341 50.4985 198.565Z" fill="#251D1F"/>
<path d="M39.5173 408.23C35.5605 406.825 32.0552 405.13 28.3564 404.332C23.4534 403.275 22.079 400.709 23.7314 395.699C33.1117 394.412 42.7433 393.091 52.6016 391.739C52.6016 394.021 52.6016 395.753 52.6016 397.728C46.0281 398.481 39.6895 399.208 33.3509 399.934C33.3074 400.21 33.2639 400.486 33.2205 400.761C38.617 402.725 44.0562 404.583 49.3788 406.729C50.647 407.241 51.5254 408.718 52.583 409.752C51.5395 410.603 50.6253 411.825 49.4301 412.243C44.113 414.103 38.7156 415.733 33.264 418.458C39.4661 419.411 45.6681 420.365 52.0321 421.343C52.0321 423.245 52.0321 425.026 52.0321 427.339C42.305 425.669 32.863 424.047 23.181 422.384C23.181 420.052 23.181 417.971 23.181 415.543C29.2839 413.598 35.4611 411.629 42.166 409.493C41.0384 408.923 40.4605 408.631 39.5173 408.23Z" fill="#261F20"/>
<path d="M49.1467 129.929C48.6193 130.604 48.263 131.719 48.419 131.796C53.4784 134.293 58.5871 136.691 64.1655 139.329C63.3505 141.161 62.5895 142.872 61.6753 144.927C52.6822 140.66 44.0276 136.553 35.4805 132.497C35.9886 127.693 38.5845 125.711 42.905 124.983C48.9491 123.964 54.9101 122.453 62.2635 120.858C55.6841 117.682 50.1764 115.024 44.3443 112.209C45.1643 110.304 45.8602 108.687 46.746 106.63C55.6814 110.855 64.3308 114.946 73.0096 119.05C72.5996 123.571 70.285 125.479 66.0952 126.17C60.5293 127.087 55.0647 128.618 49.1467 129.929Z" fill="#241D1E"/>
<path d="M167.474 572.089C170.001 577.668 172.125 583.173 174.744 589.961C176.418 584.9 178.052 580.886 179.039 576.718C180.077 572.339 182.35 570.985 186.877 572.557C188.216 581.365 189.585 590.361 191.02 599.792C189.144 599.792 187.461 599.792 185.4 599.792C184.66 593.83 183.909 587.781 183.158 581.732C182.899 581.679 182.641 581.626 182.382 581.574C180.936 585.955 179.628 590.389 177.98 594.693C177.23 596.654 175.808 598.357 174.691 600.177C173.461 598.28 171.879 596.52 171.076 594.457C169.413 590.182 168.164 585.746 166.013 581.481C165.255 587.515 164.497 593.549 163.701 599.889C161.94 599.889 160.197 599.889 158.133 599.889C159.494 590.729 160.833 581.718 162.274 572.016C163.877 572.016 165.474 572.016 167.474 572.089Z" fill="#261E20"/>
<path d="M23.7738 359.034C33.4382 358.845 42.7351 358.845 52.1296 358.845C53.3523 363.012 52.7328 365.755 49.2192 368.122C43.5725 371.926 38.2565 376.221 32.1006 380.834C38.9641 380.834 45.2592 380.834 51.8694 380.834C51.8694 383.214 51.8694 384.961 51.8694 387.049C42.409 387.049 32.8761 387.049 23.3624 387.049C21.955 382.589 23.0232 379.652 26.8341 377.16C32.2023 373.65 37.1978 369.57 43.3061 365.025C36.073 365.025 29.8753 365.025 23.1215 365.025C23.2353 362.704 23.3207 360.964 23.7738 359.034Z" fill="#231B1D"/>
<path d="M324.166 542.002C324.809 542.022 325.453 542.042 326.411 542.116C326.724 544.268 326.724 546.366 326.724 549.121C320.069 547.642 314.036 546.117 307.931 544.985C296.552 542.876 285.198 540.005 273.714 539.234C252.553 537.814 231.279 536.707 210.103 537.304C190.791 537.849 171.507 540.501 152.289 542.866C142.985 544.012 133.883 546.74 124.642 548.498C122.468 548.911 120.099 548.296 117.431 548.085C117.146 547.697 117.329 547.431 118.194 547.059C186.963 530.837 255.243 530.196 323.794 545.195C323.9 544.282 324.033 543.142 324.166 542.002Z" fill="#EEF9F4"/>
<path d="M380.064 70.873C384.697 75.1218 386.574 80.1167 385.72 85.9332C384.75 92.5339 379.255 97.881 372.855 98.8552C366.419 99.835 359.815 96.3958 356.677 90.4303C353.39 84.1802 354.307 76.8305 358.987 71.9221C363.719 66.9583 370.405 65.7803 376.811 68.8339C377.852 69.3296 378.793 70.0328 380.064 70.873ZM370.298 92.8635C379.094 90.5389 382.896 82.4482 377.842 76.6337C374.933 73.2877 371.252 72.1879 367.109 74.1559C362.863 76.173 360.227 79.512 360.738 84.3931C361.271 89.4922 364.376 92.3501 370.298 92.8635Z" fill="#241C1E"/>
<path d="M399.417 263.624C403.63 255.626 410.175 252.326 417.522 254.238C424.599 256.08 429.468 263.124 429.038 270.902C428.626 278.372 423.179 284.468 415.836 285.679C404.353 287.573 395.937 276.563 399.417 263.624ZM408.081 277.699C416.243 281.085 423.926 277.02 423.479 269.456C423.204 264.797 420.659 261.818 416.074 260.687C411.616 259.588 406.903 261.358 405.003 265.22C402.784 269.728 403.444 273.871 408.081 277.699Z" fill="#241C1E"/>
<path d="M397.848 157.986C403.815 151.211 411.509 149.664 418.064 153.657C424.786 157.752 427.592 166.316 424.63 173.694C421.793 180.757 414.804 184.574 407.331 183.142C396.572 181.08 391.931 169.178 397.848 157.986ZM400.556 166.683C400.763 168.146 400.703 169.712 401.225 171.052C402.959 175.501 406.498 177.243 411.089 176.846C415.942 176.427 419.665 172.843 420.098 168.425C420.55 163.815 417.969 159.782 413.685 158.407C408.246 156.662 402.802 159.773 400.556 166.683Z" fill="#241C1E"/>
<path d="M23.4212 277.347C19.7392 263.713 29.0723 252.405 41.0731 255.391C48.1147 257.144 52.9392 263.322 53.0328 270.707C53.1287 278.262 48.2281 284.809 41.138 286.599C34.0054 288.399 27.7485 285.218 23.4212 277.347ZM38.3712 280.316C45.0365 279.083 48.0876 275.354 47.2379 269.477C46.4918 264.317 41.9881 261.155 36.254 261.765C31.3427 262.288 27.9357 265.862 27.7977 270.635C27.6367 276.203 30.8607 279.417 38.3712 280.316Z" fill="#241C1E"/>
<path d="M300.656 39.5766C300.937 30.6394 305.085 24.8001 312.043 23.0963C319.088 21.3715 326.391 24.5676 329.872 30.8991C333.464 37.4316 332.393 44.9307 326.976 50.0564C322.609 54.189 317.358 55.2202 311.739 53.4024C305.298 51.3187 301.699 46.6498 300.656 39.5766ZM306.856 37.7875C307.076 44.1485 309.962 47.8715 315.017 48.3128C319.976 48.7459 324.34 45.1403 325.493 39.6574C326.513 34.8029 323.815 30.2721 319.051 28.8385C314.305 27.4105 309.969 29.8917 307.37 35.5445C307.166 35.989 307.094 36.4943 306.856 37.7875Z" fill="#231B1D"/>
<path d="M407.597 389.481C400.236 386.203 397.206 381.069 398.189 373.979C399.155 366.999 403.902 361.885 410.525 360.688C417.665 359.398 424.182 362.471 427.309 368.603C430.737 375.324 429.324 382.504 423.249 388.232C422.23 386.952 421.229 385.693 420.274 384.493C424.845 377.724 424.27 371.239 418.999 368.29C413.955 365.468 407.088 367.318 404.703 372.141C402.365 376.871 403.939 381.546 408.944 383.606C409.106 381.415 409.258 379.364 409.445 376.838C410.94 376.765 412.489 376.689 414.388 376.597C414.388 381.169 414.388 385.288 414.388 390.113C412.374 389.96 410.159 389.792 407.597 389.481Z" fill="#261E20"/>
<path d="M28.7589 452.111C26.518 461.805 31.9034 467.864 40.5006 465.79C45.1638 464.665 47.5088 461.364 47.6361 456.751C47.7244 453.549 46.9819 450.446 42.4988 449.645C42.287 451.953 42.0986 454.004 41.8778 456.41C40.4523 456.5 39.0385 456.589 37.2683 456.7C37.2683 452.024 37.2683 447.643 37.2683 443.284C45.172 442.667 51.2178 446.508 52.8445 452.98C54.7514 460.567 50.7849 468.784 43.8516 471.611C36.7087 474.524 28.5948 471.892 24.6087 465.51C20.7208 459.286 21.7319 448.709 28.5108 444.746C29.4511 445.893 30.435 447.094 31.4529 448.336C30.5065 449.631 29.7294 450.695 28.7589 452.111Z" fill="#251D1F"/>
<path d="M406.137 316.059C401.193 313.205 399.302 308.932 399.063 303.86C398.884 300.072 399.027 296.269 399.027 291.896C408.635 291.896 418.163 291.896 427.747 291.896C431.017 311.865 422.363 321.898 406.137 316.059ZM404.761 305.436C407.134 310.665 411.608 312.514 417.471 310.69C422.101 309.25 423.561 305.715 422.554 298.316C416.505 298.316 410.455 298.316 404.062 298.316C404.233 300.726 404.372 302.69 404.761 305.436Z" fill="#21191B"/>
<path d="M178.451 10.3788C184.148 15.0416 186.034 20.8633 184.619 27.5046C183.286 33.7692 178.429 36.5788 172.621 38.0595C169.615 38.8261 166.622 39.6485 163.306 40.5299C160.731 30.7175 158.27 21.3432 155.693 11.5271C163.446 10.0662 170.457 5.70693 178.451 10.3788ZM172.57 32.4512C178.93 29.3068 180.307 25.329 177.329 18.7105C174.914 13.3446 170.751 12.4256 163.328 15.7216C164.569 20.4945 165.994 25.2579 167 30.1082C167.645 33.2168 169.095 33.8831 172.57 32.4512Z" fill="#241C1E"/>
<path d="M414.094 421.306C401.065 421.605 395.905 415.468 398.719 403.741C399.88 398.902 402.824 396.043 407.703 395.843C414.333 395.571 420.982 395.775 427.934 395.775C427.934 397.31 427.934 399.224 427.934 401.899C423.049 401.899 418.271 401.857 413.495 401.908C406.208 401.986 403.867 403.599 403.899 408.4C403.932 413.452 406.328 415.015 413.89 414.976C418.689 414.95 423.488 414.971 428.506 414.971C428.506 417.001 428.506 418.759 428.506 421.298C423.778 421.298 419.168 421.298 414.094 421.306Z" fill="#251D1F"/>
<path d="M64.7691 96.269C67.3102 98.1949 69.5099 99.9875 71.84 101.591C75.0929 103.829 78.1284 103.554 80.5691 100.287C82.9463 97.1049 82.6998 93.9565 79.6572 91.4392C74.9259 87.5247 70.0053 83.8392 64.8877 79.8401C66.0876 78.2209 67.137 76.8049 68.705 74.689C74.5837 79.4286 80.6794 83.7086 85.9789 88.815C90.2836 92.9628 89.1761 99.0561 84.1241 104.93C79.5928 110.198 74.9428 111.361 69.665 107.818C64.1605 104.122 59.0234 99.8796 53.3223 95.5711C54.6259 93.781 55.7387 92.253 57.0444 90.4601C59.7552 92.4969 62.1206 94.2741 64.7691 96.269Z" fill="#241C1E"/>
<path d="M395.493 134.327C392.57 135.476 389.648 136.625 386.235 137.967C385.462 136.269 384.667 134.523 383.64 132.266C392.558 128.385 401.312 124.576 410.993 120.363C412.653 125.142 414.894 129.642 415.559 134.363C415.877 136.617 413.776 140.019 411.755 141.619C408.154 144.47 404.302 143.096 401.063 139.564C398.066 143.718 395.282 147.577 392.349 151.642C389.263 147.962 388.622 144.691 392.253 141.182C393.783 139.703 394.867 137.764 396.552 135.506C396.465 134.761 395.979 134.544 395.493 134.327ZM409.909 134.939C409.68 132.852 409.45 130.765 409.17 128.216C406.153 129.525 404.082 130.424 401.822 131.404C403.481 134.976 404.358 139.169 409.909 134.939Z" fill="#251D1F"/>
<path d="M404.067 110.585C400.738 117.511 396.952 118.645 390.008 114.878C387.775 119.064 385.536 123.259 383.271 127.505C378.921 123.054 378.82 122.684 380.903 118.858C382.472 115.975 384.055 113.099 385.061 109.45C381.894 111.273 378.726 113.097 375.21 115.12C374.141 113.395 373.125 111.758 371.887 109.761C380.336 104.605 388.512 99.6157 397.928 93.8691C400.111 99.6245 402.114 104.902 404.067 110.585ZM396.983 110.403C399.962 107.471 397.809 105.226 396.196 102.404C393.801 103.894 391.803 105.137 389.806 106.38C389.718 106.968 389.63 107.557 389.542 108.146C391.791 109.05 394.041 109.954 396.983 110.403Z" fill="#241C1E"/>
<path d="M277.25 579.007C280.301 585.354 279.753 591.065 275.353 596.037C271.548 600.336 266.576 601.941 260.897 600.554C254.308 598.946 249.985 593.648 249.651 587.005C249.313 580.259 253.084 574.532 259.335 572.301C265.976 569.93 272.219 572.172 277.25 579.007ZM258.25 593.093C261.866 596.214 265.723 596.611 269.591 593.741C272.991 591.218 273.995 586.055 272.089 581.969C270.24 578.005 267.066 576.314 262.775 576.979C256.247 577.99 253.901 585.321 258.25 593.093Z" fill="#241D1E"/>
<path d="M403.468 342.302C402.042 343.138 400.917 343.774 399.647 344.492C396.416 334.115 407.151 335.077 410.851 329.856C406.967 329.856 403.308 329.856 399.284 329.856C399.284 327.564 399.284 325.677 399.284 323.31C408.787 323.31 418.355 323.31 428.397 323.31C428.397 326.761 428.487 330.238 428.373 333.709C428.234 337.981 427.03 341.762 422.219 342.779C417.462 343.785 414.223 341.634 412.199 336.704C409.28 338.573 406.524 340.337 403.468 342.302ZM416.409 334.643C418.211 335.143 421.019 336.588 421.615 335.954C423.02 334.459 423.372 331.974 424.331 329.401C420.898 329.401 418.663 329.401 416.152 329.401C416.152 331.035 416.152 332.455 416.409 334.643Z" fill="#241C1E"/>
<path d="M426.778 246.669C420.815 251.731 416.405 250.842 411.941 243.843C407.929 246.338 403.904 248.841 399.644 251.49C396.578 241.318 406.951 241.99 410.544 236.767C406.715 236.767 403.207 236.767 399.176 236.767C399.071 234.497 398.984 232.611 398.875 230.234C408.757 230.234 418.326 230.234 428.936 230.234C428.276 235.644 427.624 240.989 426.778 246.669ZM423.749 239.136C423.147 232.909 418.825 237.501 416.526 236.21C416.078 236.555 415.631 236.9 415.184 237.245C416.386 239.324 417.588 241.403 418.79 243.482C420.392 242.289 421.993 241.097 423.749 239.136Z" fill="#21191B"/>
<path d="M60.3299 149.847C59.9606 153.49 58.8695 155.6 54.9592 156.037C53.5598 156.194 51.8295 158.908 51.3859 160.731C50.8001 163.138 50.406 167.439 51.5476 168.09C55.8869 170.567 54.9651 173.445 53.3376 177.39C45.1625 171.602 37.0234 165.974 29.059 160.11C26.9555 158.561 28.5258 152.361 31.0787 151.999C40.6065 150.647 50.1698 149.543 59.727 148.407C59.9136 148.385 60.1886 149.107 60.3299 149.847ZM37.4593 159.285C39.8954 160.873 42.3314 162.461 45.2693 164.376C45.9821 161.389 46.5303 159.092 47.195 156.307C42.8252 156.669 39.0634 156.98 34.578 157.351C35.8235 158.229 36.3515 158.601 37.4593 159.285Z" fill="#251D1F"/>
<path d="M32.9903 333.099C39.4157 330.736 45.4727 328.499 51.81 326.159C52.8927 330.444 52.8766 333.52 47.8627 335.17C46.6643 335.564 46.3423 339.217 45.9834 341.431C45.4219 344.895 45.7864 347.664 50.1287 349.002C51.4657 349.413 51.7751 353.16 53.0101 356.675C42.5386 352.399 33.5751 348.89 24.7948 344.971C23.6349 344.453 22.8794 341.833 22.9111 340.206C22.9385 338.8 24.0225 336.873 25.225 336.149C27.466 334.801 30.1325 334.16 32.9903 333.099ZM34.4936 339.019C32.9429 339.569 31.3922 340.119 28.8246 341.03C33.5249 342.63 37.024 343.822 40.73 345.084C40.73 342.141 40.73 339.746 40.73 337.04C38.6791 337.7 36.9654 338.252 34.4936 339.019Z" fill="#231B1D"/>
<path d="M402.856 451.163C409.651 455.316 416.127 459.284 423.294 463.675C423.294 458.716 423.294 454.527 423.294 450.141C425.19 450.141 426.62 450.141 428.449 450.141C428.449 457.953 428.449 465.549 428.449 473.872C420.485 469.028 412.755 464.326 404.433 459.264C404.433 464.386 404.433 468.896 404.433 473.719C402.607 473.811 401.189 473.882 399.336 473.975C399.336 465.725 399.336 457.788 399.336 449.431C400.375 449.933 401.456 450.455 402.856 451.163Z" fill="#261F20"/>
<path d="M91.8545 83.2169C86.1391 77.8459 80.6746 72.7336 74.822 67.2581C79.9142 62.8064 84.1247 59.1255 88.6584 55.1621C88.8961 55.3827 90.0547 56.458 91.4665 57.7684C88.9352 60.4714 86.5829 62.9833 83.9318 65.8143C85.1573 67.1448 86.3317 68.4199 88.0189 70.2517C90.2383 67.351 92.3318 64.615 94.6518 61.5827C96.8519 63.5266 98.0209 64.5594 99.5957 65.9508C96.9646 68.7375 94.5226 71.3239 91.7327 74.2789C93.7213 75.7411 95.4339 77.0003 97.5457 78.5531C99.1913 76.4331 101.305 73.7101 103.678 70.653C105.911 72.6962 107.06 73.7473 108.434 75.0049C104.058 78.9104 99.895 82.6264 94.5407 87.4052C94.1985 86.8529 93.1519 85.1642 91.8545 83.2169Z" fill="#241D1E"/>
<path d="M191.938 22.2745C191.171 15.7554 190.443 9.67755 189.644 3.00635C195.444 2.24043 200.935 1.51537 206.695 0.754883C206.941 2.56516 207.134 3.98473 207.407 5.9904C203.9 6.52872 200.549 7.04315 196.751 7.62619C196.898 9.53969 197.031 11.2814 197.197 13.4576C200.974 13.0954 204.38 12.7689 208.111 12.4113C208.354 14.1301 208.576 15.6974 208.836 17.5373C205.049 18.1138 201.65 18.631 197.924 19.1981C198.267 21.5709 198.568 23.6563 198.948 26.2941C202.52 25.9485 205.904 25.621 209.663 25.2572C209.875 26.9592 210.07 28.5234 210.319 30.5182C204.585 31.2268 199.206 31.8915 193.289 32.6227C192.831 29.167 192.403 25.9413 191.938 22.2745Z" fill="#241D1E"/>
<path d="M427.194 427.785C427.85 428.267 428.287 428.678 428.291 429.093C428.338 434.238 428.321 439.384 428.321 444.992C426.995 445.069 425.423 445.161 423.3 445.286C423.3 441.502 423.3 438.091 423.3 434.408C421.055 434.408 419.338 434.408 417.245 434.408C417.245 438.043 417.245 441.465 417.245 445.199C415.475 445.335 414.051 445.445 412.044 445.6C412.044 441.913 412.044 438.502 412.044 434.721C409.307 434.721 407.126 434.721 404.535 434.721C404.535 438.351 404.535 441.765 404.535 445.468C402.74 445.623 401.32 445.746 399.408 445.911C399.408 439.935 399.408 434.243 399.408 427.716C408.549 427.716 417.662 427.716 427.194 427.785Z" fill="#231B1D"/>
<path d="M332.665 54.7498C339.094 41.9965 351.727 40.5237 360.557 50.9878C363.559 54.5456 363.729 57.2739 359.576 59.7671C356.005 52.2378 351.678 49.0545 346.475 50.1461C341.858 51.1145 337.728 56.3405 337.836 61.0772C337.957 66.3657 341.956 69.9606 349.374 71.4486C346.72 76.837 345.517 77.2164 340.483 74.252C333.448 70.1101 330.716 63.5292 332.665 54.7498Z" fill="#241D1E"/>
<path d="M288.036 33.073C286.776 30.5115 285.64 28.1326 283.969 26.2198C281.045 22.8724 277.699 19.4428 280.257 14.8697C281.496 12.6555 284.599 10.5888 287.133 10.1866C292.005 9.41328 296.257 11.324 298.645 16.6076C297.382 17.3831 296.167 18.1293 294.662 19.054C294.119 18.3747 293.744 17.4114 293.156 17.2578C291.018 16.6987 288.809 16.4103 286.627 16.0198C287.062 18.0296 287.12 20.2376 288.042 21.9924C288.93 23.6836 290.803 24.8284 292.078 26.3515C294.82 29.6268 295.328 33.2624 293.02 36.9357C290.69 40.6448 286.91 41.917 283.048 40.5236C279.568 39.2676 276.529 36.7858 272.334 34.2675C275.032 32.3109 276.294 31.3955 277.55 30.4847C281.978 36.1979 283.761 36.6753 288.036 33.073Z" fill="#251D1F"/>
<path d="M46.2886 322.897C46.255 321.49 46.7501 320.324 46.734 319.165C46.6982 316.587 47.396 312.89 46.013 311.671C43.1379 309.138 41.5158 312.425 40.1556 314.71C39.0501 316.567 38.412 318.983 36.8348 320.211C34.6513 321.911 31.5997 323.939 29.2568 323.586C26.9051 323.233 24.1456 320.519 23.024 318.149C20.9054 313.672 21.5556 309.104 25.9551 305.315C27.5847 307.109 30.2179 307.893 27.716 311.271C26.9006 312.372 28.4648 315.235 28.9406 317.292C30.598 316.349 32.6496 315.743 33.8165 314.38C35.4007 312.53 35.8417 309.532 37.6267 308.065C39.7308 306.336 42.984 304.495 45.3046 304.945C47.8667 305.441 51.3065 308.134 51.8998 310.491C52.7922 314.036 51.8743 318.192 51.0606 321.944C50.6637 323.774 48.8243 325.523 46.2886 322.897Z" fill="#241D1E"/>
<path d="M223.308 600.175C221.478 598.618 219.865 597.171 218.589 595.471C217.523 594.052 216.85 592.336 215.961 590.671C212.126 593.856 213.089 602.444 204.833 599.812C204.833 599.458 204.723 599.096 204.849 598.861C207.278 594.347 211.585 589.872 211.645 585.337C211.701 581.108 207.249 576.819 204.739 572.482C213.021 569.852 212.229 577.798 215.687 580.947C219.242 578.222 218.433 569.678 226.636 572.449C226.094 573.517 225.736 574.858 224.903 575.76C218.762 582.403 218.892 588.957 224.823 595.649C225.776 596.724 226.29 598.188 227.286 599.975C225.814 600.056 224.742 600.116 223.308 600.175Z" fill="#241D1E"/>
<path d="M222.816 10.0505C222.821 15.0096 222.821 19.4793 222.821 24.3452C226.434 24.3452 229.509 24.3452 232.83 24.3452C232.83 26.3173 232.83 27.8801 232.83 29.7561C227.482 29.7561 222.378 29.7561 216.727 29.7561C216.727 20.029 216.727 10.2935 216.727 0.280762C218.425 0.280762 220.191 0.280762 222.81 0.280762C222.81 3.37068 222.81 6.4659 222.816 10.0505Z" fill="#2A2224"/>
<path d="M107.86 64.2101C103.705 58.5894 99.7522 53.2666 95.4744 47.5067C97.0925 46.202 98.575 45.0067 100.418 43.5205C105.29 50.06 110.004 56.3872 114.936 63.0079C117.642 60.9975 120.12 59.1553 122.873 57.1101C123.949 58.4358 124.953 59.6722 126.243 61.262C121.866 64.6339 117.711 67.8338 113.186 71.3194C111.403 68.9498 109.732 66.7288 107.86 64.2101Z" fill="#251D1F"/>
<path d="M234.952 598.786C234.927 591.494 234.927 584.685 234.927 577.51C232.627 577.284 230.573 577.082 228.292 576.858C228.292 575.307 228.292 573.906 228.292 572.26C234.6 572.26 240.716 572.26 247.447 572.26C247.515 573.654 247.588 575.158 247.672 576.907C245.307 577.068 243.377 577.2 240.947 577.367C240.947 584.919 240.947 592.326 240.947 600.56C238.53 600.038 236.754 599.654 234.952 598.786Z" fill="#241C1E"/>
<path d="M23.0574 294.231C23.8199 293.293 24.5558 292.378 25.3017 292.37C34.2581 292.271 43.216 292.306 52.3781 292.306C52.3781 295.039 52.3781 296.825 52.3781 298.846C43.2458 298.846 34.1373 298.938 25.0397 298.666C24.3323 298.644 23.7016 296.066 23.0574 294.231Z" fill="#251D1F"/>
<path d="M418.932 354.735C412.162 354.742 405.88 354.742 399.337 354.742C399.337 352.758 399.337 350.991 399.337 348.622C408.903 348.622 418.463 348.622 428.387 348.622C428.387 350.236 428.387 352.116 428.387 354.729C425.347 354.729 422.383 354.729 418.932 354.735Z" fill="#2C2627"/>
<path d="M24.3963 431.138C33.8043 431.097 42.7489 431.097 52.0231 431.097C52.0231 433.812 52.0231 435.691 52.0231 437.595C42.3675 437.595 32.8382 437.595 22.4841 437.595C23.0573 435.057 23.4951 433.118 24.3963 431.138Z" fill="#2A2224"/>
<path d="M200.9 573.414C200.958 582.476 200.958 591.073 200.958 599.928C198.935 600.043 197.33 600.135 195.34 600.248C195.34 590.874 195.34 581.71 195.34 571.747C197.307 572.177 199.075 572.563 200.9 573.414Z" fill="#241C1E"/>
<path d="M210.391 485.994C210.86 484.89 211.728 483.894 213.134 482.643C214.789 482.57 215.905 482.753 217.021 482.935C218.133 483.522 219.304 484.027 220.317 484.752C220.585 484.944 220.368 485.814 220.204 486.569C216.953 486.544 213.871 486.323 210.391 485.994Z" fill="#191219"/>
<path d="M224.383 486.794C224.078 486.16 224.141 485.263 224.211 485.263C228.207 485.229 232.204 485.269 236.106 485.593C235.844 485.943 235.677 486.003 235.078 485.814C234.086 485.744 233.525 485.925 232.965 486.106C230.228 486.388 227.492 486.669 224.383 486.794Z" fill="#191219"/>
<path d="M233.154 486.207C233.525 485.926 234.086 485.745 234.816 485.761C234.438 486.075 233.891 486.191 233.154 486.207Z" fill="#221E1D"/>
<path d="M115.135 548.244C115.474 548.005 115.913 548.009 116.683 548.03C116.42 548.193 115.828 548.34 115.135 548.244Z" fill="#EEF9F4"/>
<path d="M329.268 542.402C329.599 542.329 330.145 542.421 330.87 542.732C330.527 542.822 330.005 542.695 329.268 542.402Z" fill="#EEF9F4"/>
<path d="M243.281 484.892C243.304 484.662 243.516 484.476 243.769 484.522C243.811 484.753 243.47 484.935 243.281 484.892Z" fill="#191219"/>
<path d="M217.439 482.86C215.905 482.753 214.788 482.571 213.334 482.44C190.222 479.592 168.956 472.575 150.237 458.965C145.443 455.479 141.192 451.246 136.208 446.904C132.797 443.651 129.871 440.85 126.944 438.049C126.944 438.049 127 438 127.112 437.682C125.463 435.597 123.701 433.83 121.939 432.063C121.939 432.063 121.997 432.002 122.099 431.686C119.785 428.587 117.369 425.806 114.952 423.025C114.952 423.025 114.999 423 115.128 422.677C114.493 421.567 113.728 420.78 112.964 419.993C112.964 419.993 113.009 419.995 113.152 419.715C112.566 418.845 111.837 418.255 111.109 417.665C103.539 405.351 97.4029 392.326 94.4466 378.177C92.3806 368.289 90.7408 358.104 90.6735 348.04C90.2998 292.226 90.4652 236.408 90.4571 180.592C90.457 179.948 90.6038 179.303 90.7308 178.257C134.699 178.257 178.555 178.257 222.986 178.257C222.986 278.235 222.986 378.151 223.001 478.781C223.058 479.662 223.101 479.829 223.143 479.997C223.296 484.556 219.898 482.384 217.439 482.86ZM123.97 315.658C123.97 320.26 123.97 324.863 123.97 329.851C133.11 328.878 141.6 327.974 150.607 327.015C149.125 341.158 147.712 354.641 146.264 368.463C153.803 368.463 160.852 368.463 168.465 368.463C167.033 354.634 165.626 341.046 164.171 326.998C173.377 327.981 181.873 328.888 190.597 329.819C190.597 322.514 190.597 315.785 190.597 308.566C181.772 309.478 173.261 310.357 164.316 311.281C165.778 302.452 167.127 294.312 168.501 286.016C160.881 286.016 153.707 286.016 146.187 286.016C147.625 294.541 148.99 302.633 150.454 311.308C141.241 310.357 132.749 309.481 123.97 308.575C123.97 311.091 123.97 312.904 123.97 315.658Z" fill="#FEEA02"/>
<path d="M226.907 180.952C226.731 177.114 229.551 177.915 231.733 177.912C250.224 177.886 268.716 177.898 287.208 177.896C308.198 177.893 329.189 177.962 350.178 177.815C353.921 177.789 355.421 178.628 355.41 182.761C355.259 238.734 355.52 294.71 355.153 350.682C354.953 381.126 343.501 407.81 324.966 431.5C308.555 452.475 287.547 467.296 262.285 475.869C256.796 477.732 251.077 478.916 245.231 480.704C244.998 480.995 244.871 480.882 244.871 480.882C240.026 481.371 235.187 481.972 230.329 482.261C229.285 482.323 228.174 481.261 227.045 479.9C227.01 407.171 227.036 335.258 227.03 263.346C227.028 235.881 226.95 208.416 226.907 180.952ZM239.073 384.018C239.204 385.403 239.334 386.788 239.493 388.47C241.397 388.147 242.727 388.047 243.983 387.688C253.883 384.856 263.696 381.676 273.685 379.209C280.894 377.429 288.296 375.975 295.681 375.527C300.524 375.233 305.644 378.89 309.807 373.229C310.622 372.121 313.228 372.005 315.011 371.997C319.162 371.977 323.317 372.262 327.467 372.497C333.942 372.863 340.411 373.352 346.889 373.662C349.566 373.79 351.103 372.831 351.029 369.583C350.524 347.435 350.222 325.283 349.736 303.135C349.709 301.872 348.985 300.133 348.007 299.47C344.548 297.126 340.797 295.22 337.23 293.029C327.83 287.254 317.984 284.624 307.473 289.558C304.255 291.069 302.272 291.224 299.111 288.989C286.445 280.032 273.1 277.592 259.127 286.493C254.834 289.226 250.65 292.481 244.918 291.201C240.461 290.207 239.268 292.295 239.28 296.652C239.36 325.475 239.189 354.299 239.073 384.018Z" fill="#0049B7"/>
<path d="M194 173.689C160.84 173.689 128.18 173.615 95.5215 173.779C91.3948 173.799 90.1084 172.725 90.1848 168.517C90.4419 154.358 90.2934 140.191 90.301 126.028C90.3046 119.23 90.3055 119.223 96.9009 119.223C157.221 119.221 217.542 119.223 277.862 119.222C301.857 119.222 325.852 119.22 349.846 119.219C351.487 119.219 353.128 119.219 355.185 119.219C355.185 137.371 355.185 155.106 355.185 173.689C301.645 173.689 248.072 173.689 194 173.689ZM305.058 166C311.646 159.526 318.349 159.404 325.204 165.594C325.649 165.996 326.314 166.155 327.557 166.755C326.872 163.462 326.657 160.663 325.682 158.16C324.314 154.645 325.031 152.238 328.025 150.012C330.434 148.22 332.493 145.957 335.355 143.303C331.729 143.033 329.255 142.596 326.81 142.724C322.68 142.939 320.472 141.074 319.255 137.248C318.408 134.584 316.997 132.1 315.469 128.722C314.1 132.16 312.842 134.538 312.216 137.072C311.247 140.992 308.932 142.313 305.06 142.256C302.25 142.214 299.43 142.909 295.733 143.39C298.5 145.752 300.248 147.542 302.28 148.91C305.387 151.002 306.69 153.232 305.334 157.189C304.375 159.988 304.722 163.235 305.058 166ZM227.432 168.016C230.493 167.333 233.555 166.65 236.616 165.966C223.316 163.013 216.927 156.801 217.393 146.65C217.868 136.304 224.2 130.615 236.448 129.528C230.767 125.083 223.016 125.173 215.843 129.768C208.563 134.432 204.897 143.845 207.07 152.3C209.403 161.377 216.793 167.33 227.432 168.016ZM141.536 139.307C139.157 140.934 138.405 139.62 137.918 137.43C137.308 134.691 136.518 131.992 135.807 129.275C135.537 129.311 135.267 129.346 134.997 129.381C134.035 132.981 133.073 136.581 132.032 140.474C128.888 139.054 126.262 137.868 122.718 136.267C124.504 140.062 125.858 142.938 127.29 145.98C125.563 146.961 124.134 147.774 122.349 148.789C124.238 149.645 125.687 150.301 127.624 151.179C125.681 153.579 124.017 155.635 122.165 157.922C132.061 157.158 132.061 157.158 136.042 160.662C138.92 151.605 144.4 158.71 149.51 158.819C147.255 156.037 145.425 153.781 143.359 151.232C145.311 150.292 146.893 149.53 148.713 148.653C146.883 147.728 145.355 146.956 143.602 146.071C145.054 142.83 146.389 139.853 148.145 135.935C145.444 137.373 143.846 138.225 141.536 139.307Z" fill="#0194F2"/>
<path d="M226.656 180.747C226.951 208.416 227.028 235.881 227.03 263.346C227.037 335.258 227.01 407.171 226.95 479.552C225.901 480.015 224.899 480.008 223.52 479.999C223.101 479.829 223.058 479.662 223.08 479.243C223.557 478.332 224.33 477.672 224.329 477.013C224.255 379.79 224.125 282.568 224 185.345C223.999 183.848 223.947 182.335 224.167 180.867C224.2 180.652 225.624 180.645 226.656 180.747Z" fill="#191219"/>
<path d="M124 176.978C113.75 176.978 104 176.978 94.2502 176.978C94.2533 176.735 94.2565 176.492 94.2596 176.248C133.754 176.248 173.249 176.248 212.744 176.248C212.745 176.492 212.746 176.735 212.747 176.979C183.331 176.979 153.915 176.979 124 176.978Z" fill="#191219"/>
<path d="M126.957 438.392C129.871 440.85 132.797 443.651 135.924 446.734C133.073 444.255 130.021 441.495 126.957 438.392Z" fill="#D8CCAC"/>
<path d="M114.968 423.374C117.369 425.806 119.785 428.587 122.066 431.711C119.615 429.277 117.3 426.499 114.968 423.374Z" fill="#D8CCAC"/>
<path d="M121.903 432.407C123.701 433.83 125.463 435.597 127.086 437.708C125.254 436.285 123.561 434.518 121.903 432.407Z" fill="#D8CCAC"/>
<path d="M244.938 480.939C246.68 481.02 248.484 481.157 250.288 481.294C250.19 481.87 250.091 482.447 249.993 483.023C248.365 482.552 246.736 482.081 244.99 481.246C244.871 480.881 244.998 480.995 244.938 480.939Z" fill="#191219"/>
<path d="M111.075 417.936C111.837 418.256 112.566 418.846 113.143 419.736C112.342 419.427 111.692 418.816 111.075 417.936Z" fill="#D8CCAC"/>
<path d="M112.951 420.32C113.728 420.78 114.493 421.567 115.114 422.7C114.293 422.245 113.616 421.446 112.951 420.32Z" fill="#D8CCAC"/>
<path d="M221.002 176.312C221.427 176.332 221.716 176.496 222.005 176.66C221.626 176.592 221.246 176.523 221.002 176.312Z" fill="#191219"/>
<path d="M71.7313 549.104C74.0994 550.915 73.2766 552.17 71.152 552.937C68.681 553.829 66.1479 554.549 63.1918 555.486C61.1613 549.465 59.172 543.566 57.1211 537.484C60.6868 536.199 63.9155 535.036 67.1877 533.856C67.7817 536.619 67.7817 536.619 62.1746 539.675C62.4542 542.397 63.434 543.524 66.3777 542.158C67.4637 541.654 69.0999 542.335 70.4851 542.475C69.5686 543.35 68.7943 544.669 67.7092 545.016C64.3381 546.092 64.1904 547.972 66.065 551.039C67.7659 550.432 69.572 549.788 71.7313 549.104Z" fill="#E2F9ED"/>
<path d="M84.0803 548.278C82.8124 548.336 81.0621 548.293 81.022 548.008C80.0488 541.103 74.8796 537.363 69.6938 533.376C74.9049 529.525 76.2865 535.254 79.3824 536.659C80.8912 533.662 78.981 528.541 85.3403 528.11C82.6275 534.827 82.1731 541.434 84.0803 548.278Z" fill="#E2F9ED"/>
<path d="M56.2134 558.427C54.3539 559.123 52.8122 559.627 51.3335 560.11C45.2242 549.103 44.0395 543.526 47.6818 540.992C49.6111 545.943 51.5005 550.792 53.4196 555.717C55.4755 555.082 57.3449 554.504 59.3284 553.891C61.6672 557.657 58.272 557.401 56.2134 558.427Z" fill="#E2F9ED"/>
<path d="M371.168 546.78C370.914 545.328 370.753 544.267 370.593 543.205C370.326 543.156 370.059 543.106 369.793 543.057C369.004 545.254 368.215 547.451 367.426 549.648C366.984 549.852 366.543 550.055 366.102 550.259C365.566 549.01 364.336 547.577 364.61 546.543C365.995 541.327 367.771 536.216 369.519 530.725C373.585 532.478 379.043 531.884 379.799 537.209C380.114 539.428 377.492 542.063 376.205 544.509C375.669 544.329 375.133 544.149 374.596 543.968C375.116 546.824 375.635 549.679 376.16 552.565C371.422 553.188 372.216 549.446 371.168 546.78Z" fill="#E2F9ED"/>
<path d="M399.169 556.196C401.966 553.107 404.386 550.136 407.149 547.529C408.11 546.622 410.07 546.054 411.289 546.383C412.158 546.618 413.032 548.596 413.073 549.824C413.261 555.446 413.156 561.078 412.108 567.481C411.05 566.453 409.448 565.606 409.032 564.363C407.502 559.785 404.139 558.507 399.86 560.94C398.896 561.489 397.354 561.021 394.959 561.021C396.821 558.878 397.874 557.667 399.169 556.196Z" fill="#E2F9ED"/>
<path d="M379.671 552.423C381.581 546.8 383.339 541.53 385.186 535.995C390.965 538.395 397.69 538.834 398.125 546.755C398.38 551.392 395.424 555.944 391.782 556.937C387.978 557.975 381.339 555.722 379.671 552.423ZM393.331 550.465C395.236 543.819 393.897 541.648 387.454 541.273C386.265 544.902 385.061 548.579 383.864 552.231C387.521 553.99 390.589 554.92 393.331 550.465Z" fill="#E7F9EF"/>
<path d="M416.058 566.606C418.396 561.313 420.622 556.354 422.831 551.432C432.431 554.444 435.572 557.373 435.007 563.032C434.563 567.476 432.534 571.02 427.836 572.071C423.41 573.062 417.424 570.323 416.058 566.606ZM429.456 566.837C432.653 560.44 431.584 557.799 424.924 556.219C423.394 559.702 421.846 563.227 420.319 566.704C424.971 569.554 424.971 569.554 429.456 566.837Z" fill="#E7F9EF"/>
<path d="M362.146 531.855C359.436 530.962 356.732 529.146 356.104 534.084C358.148 534.84 360.248 535.617 362.351 536.395C361.244 539.037 361.244 539.037 355.523 537.968C355.228 538.31 354.769 538.631 354.618 539.061C354.295 539.974 354.133 540.944 353.927 541.8C356.234 543.145 358.351 544.379 360.468 545.613C360.161 546.207 359.853 546.8 359.546 547.394C356.148 546.477 352.749 545.56 348.999 544.548C350.75 538.403 352.45 532.44 354.269 526.06C357.896 527.114 361.291 528.101 365.709 529.386C364.207 530.584 363.353 531.265 362.146 531.855Z" fill="#E7F9EF"/>
<path d="M339.547 536.017C341.848 533.043 343.618 529.822 345.861 526.974C346.849 525.72 348.798 525.223 350.311 524.382C350.635 524.826 350.959 525.27 351.283 525.713C347.922 530.577 344.616 535.482 341.14 540.263C340.6 541.005 339.067 541.749 338.378 541.485C337.411 541.116 336.247 539.865 336.138 538.883C335.5 533.118 335.144 527.321 334.692 521.534C335.098 521.219 335.503 520.903 335.908 520.588C336.915 521.871 338.619 523.064 338.796 524.453C339.279 528.232 339.117 532.093 339.547 536.017Z" fill="#E7F9EF"/>
<path d="M324.085 541.545C324.033 543.142 323.9 544.282 323.794 545.196C255.243 530.196 186.963 530.838 118.399 546.925C118.609 533.877 119.216 520.802 119.849 507.193C187.374 495.25 254.41 493.763 322.088 505.86C322.745 517.94 323.375 529.513 324.085 541.545ZM162.241 516.218C162.824 520.733 163.408 525.249 164.017 529.963C168.684 528.747 174.041 530.099 175.515 524.725C176.02 522.886 173.922 520.333 173.443 519.161C173.443 516.31 174.1 512.799 173.329 512.451C170.03 510.962 166.31 510.406 162.16 509.362C162.16 512.413 162.16 513.874 162.241 516.218ZM239.814 511.479C239.488 516.238 239.162 520.996 238.836 525.754C239.484 525.924 240.131 526.094 240.779 526.264C245.737 523.571 241.106 517.398 243.727 513.884C248.543 517.589 248.803 525.902 256.657 527.313C257.063 521.139 257.539 515.841 257.647 510.535C257.668 509.54 256.222 508.514 255.453 507.502C255.026 507.771 254.598 508.039 254.17 508.308C253.918 512.184 253.666 516.059 253.392 520.277C248.283 516.064 247.903 508.186 240.306 506.65C240.107 508.338 239.974 509.468 239.814 511.479ZM140.851 516.388C137.681 520.214 137.395 524.696 140.452 528.138C142.576 530.529 146.444 532.522 149.575 532.585C153.79 532.671 157.226 529.736 158.347 525.173C159.384 520.954 158.271 517.349 154.755 514.682C150.717 511.618 146.425 511.993 140.851 516.388ZM293.526 517.961C291.264 522.136 289.002 526.312 286.74 530.487C288.796 530.877 290.395 530.616 291.408 529.704C294.476 526.941 298.367 527.526 300.599 531.001C301.347 532.166 303.051 532.717 305.425 534.275C304.54 530.159 304.059 527.892 303.564 525.628C303.034 523.2 302.761 520.669 301.871 518.38C301.125 516.463 299.651 514.83 298.499 513.071C296.956 514.476 295.413 515.881 293.526 517.961ZM196.663 526.95C198.645 526.778 200.656 526.76 202.604 526.403C208.305 525.359 211.258 521.809 210.984 516.549C210.702 511.13 207.509 507.953 201.642 507.596C199.218 507.448 196.764 507.8 193.404 507.973C194.233 514.566 195.005 520.711 196.663 526.95ZM178.726 509.109C178.726 515.288 178.726 521.467 178.726 528.27C183.588 527.779 187.099 527.425 190.61 527.071C190.679 526.378 190.749 525.684 190.818 524.991C188.344 524.55 185.87 524.109 183.288 523.648C183.288 522.274 183.288 520.875 183.288 519.357C185.618 519.151 187.696 518.967 189.774 518.782C189.917 518.229 190.06 517.675 190.203 517.121C188.853 516.703 187.497 515.92 186.155 515.943C183.169 515.994 181.709 515.272 182.694 513.02C185.517 511.652 187.521 510.682 189.524 509.711C189.283 509.106 189.042 508.501 188.801 507.896C185.716 508.219 182.63 508.542 178.726 509.109ZM231.314 507C229.03 507 226.745 507 224.135 507C224.135 513.438 224.135 519.5 224.135 525.945C227.838 525.623 231.759 527.505 234.827 524.834C234.765 524.323 234.703 523.813 234.641 523.302C232.422 523.073 230.203 522.844 227.651 522.581C227.804 520.883 227.93 519.483 227.98 518.931C230.739 517.882 232.82 517.09 234.901 516.299C232.915 515.625 230.926 514.957 228.943 514.271C228.659 514.173 228.404 513.991 228.133 513.846C226.823 509.581 229.755 510.226 232.258 510.095C233.183 510.047 234.068 509.259 234.971 508.809C234.06 508.205 233.15 507.601 231.314 507ZM278.01 512.377C277.916 511.897 277.992 511.221 277.701 510.966C274.489 508.157 268.418 508.301 264.842 511.206C260.935 514.38 259.993 519.781 262.567 524.251C264.787 528.108 270.944 530.561 274.686 528.774C275.722 528.28 276.219 526.658 277.497 524.76C275.667 525.112 275.172 525.151 274.714 525.304C271.225 526.469 267.666 526.343 266.249 522.669C265.386 520.432 265.654 517.029 266.808 514.91C268.652 511.524 272.125 511.495 275.559 513.126C276.213 513.436 277.14 513.172 278.01 512.377ZM214.938 508.824C214.966 513.631 214.837 518.448 215.14 523.238C215.211 524.357 216.747 525.384 217.609 526.453C218.056 526.154 218.502 525.854 218.949 525.554C218.949 520.277 218.977 515 218.939 509.724C218.915 506.49 217.528 505.955 214.938 508.824ZM286.183 511.94C285.046 512.27 283 512.441 282.91 512.954C281.95 518.44 281.298 523.98 280.563 529.505C281.119 529.821 281.676 530.137 282.233 530.453C283.122 529.351 284.605 528.343 284.797 527.131C285.548 522.396 285.891 517.596 286.183 511.94Z" fill="#029F0A"/>
<path d="M395.726 134.609C395.979 134.544 396.465 134.76 396.7 135.204C396.286 135.251 396.122 135.071 395.726 134.609Z" fill="#E2E2E4"/>
<path d="M123.97 315.187C123.97 312.904 123.97 311.091 123.97 308.575C132.749 309.481 141.241 310.357 150.454 311.308C148.99 302.633 147.625 294.541 146.187 286.016C153.707 286.016 160.881 286.016 168.501 286.016C167.127 294.312 165.778 302.452 164.316 311.281C173.261 310.357 181.772 309.478 190.597 308.566C190.597 315.785 190.597 322.514 190.597 329.819C181.873 328.888 173.377 327.981 164.171 326.998C165.626 341.046 167.033 354.634 168.465 368.463C160.852 368.463 153.803 368.463 146.264 368.463C147.712 354.641 149.125 341.158 150.606 327.015C141.6 327.974 133.11 328.878 123.97 329.851C123.97 324.863 123.97 320.26 123.97 315.187ZM167.871 324.915C174.578 325.645 181.285 326.374 188.025 327.108C188.025 321.439 188.025 316.385 188.025 311.228C178.936 312.214 170.255 313.156 161.342 314.122C162.869 305.073 164.275 296.738 165.688 288.363C159.938 288.363 154.565 288.363 149.022 288.363C150.504 297.027 151.923 305.326 153.435 314.165C144.135 313.141 135.448 312.185 126.568 311.207C126.568 316.673 126.568 321.741 126.568 327.14C135.563 326.165 144.221 325.227 153.32 324.241C151.812 338.526 150.372 352.169 148.924 365.887C154.896 365.887 160.31 365.887 165.84 365.887C164.363 351.882 162.921 338.209 161.443 324.2C163.774 324.463 165.401 324.646 167.871 324.915Z" fill="#30281B"/>
<path d="M239.086 383.57C239.189 354.299 239.36 325.475 239.28 296.652C239.268 292.295 240.461 290.207 244.918 291.201C250.65 292.481 254.835 289.226 259.127 286.493C273.1 277.592 286.445 280.032 299.111 288.989C302.273 291.224 304.255 291.069 307.474 289.558C317.984 284.624 327.83 287.254 337.23 293.029C340.797 295.22 344.548 297.126 348.007 299.47C348.986 300.133 349.709 301.872 349.737 303.135C350.222 325.283 350.524 347.435 351.029 369.583C351.103 372.831 349.566 373.79 346.889 373.662C340.411 373.352 333.942 372.863 327.467 372.497C323.317 372.262 319.162 371.977 315.011 371.997C313.228 372.005 310.622 372.121 309.807 373.229C305.644 378.89 300.524 375.233 295.682 375.527C288.296 375.975 280.894 377.429 273.685 379.21C263.696 381.676 253.884 384.856 243.983 387.688C242.728 388.047 241.398 388.147 239.493 388.47C239.334 386.788 239.204 385.403 239.086 383.57ZM300.87 373.752C302.479 373.516 304.167 373.511 305.681 372.996C308.456 372.05 311.089 369.985 313.853 369.85C319.794 369.558 325.782 370.184 331.749 370.458C337.31 370.714 342.869 371 347.368 371.221C347.368 347.65 347.368 324.988 347.368 302.325C346.633 302.331 345.898 302.338 345.164 302.344C345.164 322.556 345.164 342.768 345.164 363.519C342.412 363.392 340.629 363.328 338.85 363.223C332.537 362.848 326.225 362.16 319.913 362.155C313.096 362.149 307.051 364.096 303.983 371.119C303.792 371.554 302.733 371.61 301.845 371.183C298.215 366.977 293.339 365.993 288.239 366.602C283.143 367.211 278.112 368.429 273.086 369.53C264.886 371.326 256.713 373.244 247.727 375.294C247.727 347.378 247.727 320.71 247.727 293.901C245.55 293.901 243.943 293.901 241.94 293.901C241.94 324.428 241.94 354.799 241.94 386.182C250.711 383.543 258.972 381.151 267.173 378.567C277.977 375.164 288.72 371.525 300.87 373.752ZM262.13 328.513C262.13 336.773 262.13 345.033 262.13 353.75C275.62 348.517 288.795 347.84 301.647 354.237C301.647 334.756 301.689 315.775 301.563 296.796C301.553 295.344 300.73 293.459 299.642 292.523C290.143 284.352 279.305 281.667 267.098 285.073C264.011 285.934 262.606 287.476 262.629 291.052C262.708 303.206 262.342 315.363 262.13 328.513ZM260.164 299.55C260.164 296.151 260.164 292.752 260.164 289.204C252.808 291.646 249.633 295.542 249.882 303.554C250.546 324.865 250.092 346.21 250.105 367.541C250.106 368.952 250.288 370.362 250.442 372.579C260.505 370.121 269.993 367.704 279.531 365.504C287.438 363.681 295.354 362.581 302.609 368.307C306.976 361.623 313.474 359.613 320.828 359.834C327.911 360.046 334.984 360.571 343.192 361.021C343.192 341.486 343.242 322.512 343.148 303.539C343.13 299.924 340.674 298.162 337.575 297.303C337.575 316.922 337.575 336.271 337.575 356.112C325.06 348.428 313.64 349.171 303.655 358.89C289.089 348.84 274.581 350.85 260.157 357.449C260.157 338.419 260.157 319.478 260.164 299.55ZM309.965 351.439C318.392 347.177 326.804 347.827 334.905 351.967C334.905 333.077 334.928 314.64 334.835 296.204C334.831 295.294 334.033 293.927 333.238 293.552C325.191 289.758 316.995 287.608 308.307 291.718C305.325 293.128 303.571 294.828 303.952 298.538C304.375 302.661 304.14 306.854 304.144 311.017C304.156 325.249 304.148 339.482 304.148 354.79C306.764 353.273 308.02 352.545 309.965 351.439Z" fill="#211F23"/>
<path d="M304.772 166.141C304.723 163.235 304.375 159.988 305.334 157.189C306.69 153.232 305.388 151.001 302.28 148.91C300.248 147.542 298.5 145.752 295.733 143.39C299.43 142.909 302.251 142.214 305.06 142.256C308.932 142.313 311.247 140.992 312.216 137.071C312.842 134.538 314.1 132.16 315.469 128.722C316.997 132.1 318.408 134.584 319.256 137.248C320.472 141.074 322.68 142.938 326.81 142.723C329.255 142.596 331.729 143.033 335.355 143.303C332.493 145.957 330.434 148.22 328.025 150.011C325.031 152.238 324.314 154.645 325.682 158.16C326.657 160.663 326.872 163.462 327.557 166.755C326.314 166.155 325.649 165.996 325.204 165.594C318.349 159.403 311.646 159.526 304.772 166.141Z" fill="#F2FAFB"/>
<path d="M226.995 168.008C216.793 167.33 209.402 161.377 207.07 152.3C204.897 143.846 208.562 134.432 215.843 129.768C223.016 125.173 230.767 125.083 236.448 129.529C224.2 130.615 217.868 136.305 217.393 146.65C216.927 156.801 223.316 163.013 236.616 165.967C233.555 166.65 230.493 167.333 226.995 168.008Z" fill="#EEF8FB"/>
<path d="M141.892 139.191C143.846 138.224 145.444 137.373 148.145 135.935C146.389 139.853 145.054 142.83 143.602 146.07C145.355 146.956 146.883 147.728 148.713 148.653C146.893 149.529 145.311 150.292 143.359 151.232C145.425 153.78 147.255 156.037 149.51 158.819C144.4 158.71 138.92 151.605 136.042 160.662C132.061 157.158 132.061 157.158 122.165 157.922C124.017 155.635 125.681 153.579 127.624 151.179C125.687 150.301 124.238 149.645 122.349 148.789C124.134 147.774 125.563 146.961 127.29 145.979C125.858 142.938 124.504 140.062 122.718 136.267C126.262 137.868 128.888 139.054 132.032 140.474C133.073 136.581 134.035 132.981 134.997 129.381C135.267 129.346 135.537 129.31 135.807 129.275C136.518 131.992 137.308 134.69 137.918 137.429C138.405 139.62 139.157 140.934 141.892 139.191Z" fill="#EEF8FB"/>
<path d="M393.166 550.83C390.589 554.92 387.521 553.99 383.864 552.231C385.061 548.579 386.265 544.902 387.454 541.273C393.897 541.648 395.236 543.819 393.166 550.83Z" fill="#02A110"/>
<path d="M429.207 567.144C424.971 569.555 424.971 569.555 420.319 566.705C421.846 563.227 423.394 559.702 424.924 556.219C431.584 557.799 432.653 560.441 429.207 567.144Z" fill="#02A110"/>
<path d="M162.2 515.776C162.16 513.874 162.16 512.412 162.16 509.362C166.31 510.405 170.03 510.962 173.329 512.451C174.1 512.799 173.443 516.31 173.443 519.161C173.922 520.333 176.02 522.886 175.515 524.725C174.041 530.099 168.684 528.747 164.017 529.963C163.408 525.249 162.824 520.733 162.2 515.776Z" fill="#E2F9ED"/>
<path d="M239.827 511.039C239.974 509.468 240.107 508.338 240.306 506.649C247.903 508.185 248.283 516.063 253.392 520.277C253.666 516.059 253.918 512.183 254.17 508.308C254.598 508.039 255.026 507.77 255.454 507.502C256.222 508.514 257.668 509.539 257.647 510.535C257.539 515.84 257.063 521.138 256.657 527.313C248.803 525.901 248.543 517.588 243.727 513.884C241.106 517.398 245.737 523.57 240.779 526.264C240.131 526.094 239.484 525.924 238.836 525.754C239.162 520.995 239.488 516.237 239.827 511.039Z" fill="#E7F9EF"/>
<path d="M141.031 516.063C146.425 511.993 150.717 511.618 154.756 514.682C158.271 517.349 159.384 520.953 158.347 525.173C157.226 529.736 153.79 532.671 149.575 532.585C146.444 532.522 142.576 530.529 140.452 528.138C137.395 524.696 137.681 520.214 141.031 516.063ZM146.96 528.946C147.614 529.006 148.506 529.369 148.881 529.075C150.909 527.48 154.028 525.96 154.416 523.957C154.821 521.867 153.111 518.533 151.269 517.118C149.908 516.071 145.646 516.393 144.819 517.588C143.384 519.661 143.284 522.883 143.302 525.619C143.309 526.661 145.182 527.692 146.96 528.946Z" fill="#E2F9ED"/>
<path d="M293.698 517.623C295.413 515.881 296.956 514.476 298.499 513.071C299.651 514.83 301.125 516.463 301.871 518.38C302.761 520.669 303.034 523.2 303.564 525.628C304.059 527.892 304.54 530.159 305.425 534.275C303.051 532.717 301.347 532.166 300.599 531.001C298.366 527.526 294.476 526.941 291.408 529.704C290.395 530.616 288.796 530.877 286.74 530.487C289.002 526.312 291.264 522.136 293.698 517.623Z" fill="#E2F9ED"/>
<path d="M196.22 526.903C195.005 520.711 194.233 514.566 193.404 507.972C196.764 507.8 199.218 507.448 201.642 507.595C207.509 507.953 210.702 511.129 210.985 516.549C211.258 521.809 208.305 525.358 202.604 526.403C200.656 526.76 198.645 526.777 196.22 526.903ZM200.386 510.883C199.625 511.308 198.229 511.702 198.206 512.163C198.025 515.815 198.105 519.479 198.105 522.991C203.522 523.553 206.759 522.651 206.901 517.748C207.01 513.956 206.045 510.789 200.386 510.883Z" fill="#E7F9EF"/>
<path d="M179.135 508.987C182.63 508.542 185.715 508.219 188.801 507.896C189.042 508.501 189.283 509.106 189.524 509.711C187.52 510.682 185.517 511.652 182.694 513.02C181.709 515.272 183.169 515.994 186.155 515.943C187.497 515.92 188.853 516.703 190.203 517.121C190.06 517.675 189.917 518.228 189.774 518.782C187.696 518.966 185.618 519.151 183.288 519.357C183.288 520.875 183.288 522.274 183.288 523.648C185.87 524.109 188.344 524.55 190.818 524.991C190.749 525.684 190.679 526.377 190.61 527.071C187.099 527.425 183.588 527.779 178.726 528.27C178.726 521.467 178.726 515.288 179.135 508.987Z" fill="#E2F9ED"/>
<path d="M231.777 506.999C233.15 507.601 234.06 508.205 234.971 508.809C234.068 509.259 233.183 510.047 232.258 510.095C229.755 510.226 226.823 509.581 228.133 513.846C228.404 513.991 228.659 514.173 228.943 514.271C230.926 514.957 232.915 515.625 234.901 516.299C232.82 517.09 230.739 517.882 227.98 518.931C227.93 519.483 227.804 520.883 227.651 522.581C230.203 522.844 232.422 523.073 234.641 523.302C234.703 523.813 234.765 524.323 234.827 524.834C231.759 527.505 227.838 525.623 224.135 525.945C224.135 519.5 224.135 513.438 224.135 507C226.745 507 229.03 507 231.777 506.999Z" fill="#EBF8F1"/>
<path d="M277.975 512.775C277.14 513.172 276.213 513.436 275.559 513.125C272.125 511.495 268.652 511.524 266.808 514.909C265.654 517.029 265.386 520.431 266.249 522.669C267.666 526.343 271.225 526.469 274.714 525.303C275.172 525.151 275.667 525.111 277.497 524.759C276.219 526.658 275.722 528.28 274.686 528.774C270.944 530.561 264.787 528.107 262.567 524.251C259.993 519.781 260.935 514.379 264.842 511.206C268.418 508.301 274.489 508.156 277.701 510.966C277.992 511.221 277.916 511.896 277.975 512.775Z" fill="#E2F9ED"/>
<path d="M214.984 508.357C217.528 505.955 218.915 506.49 218.939 509.723C218.977 515 218.949 520.277 218.949 525.554C218.502 525.854 218.056 526.153 217.609 526.453C216.747 525.384 215.21 524.357 215.14 523.238C214.837 518.448 214.966 513.631 214.984 508.357Z" fill="#EEF9F4"/>
<path d="M286.284 512.38C285.891 517.596 285.548 522.396 284.797 527.131C284.605 528.343 283.122 529.351 282.233 530.452C281.676 530.137 281.119 529.821 280.562 529.505C281.298 523.98 281.949 518.44 282.91 512.954C283 512.441 285.046 512.27 286.284 512.38Z" fill="#E7F9EF"/>
<path d="M167.449 324.872C165.401 324.646 163.774 324.463 161.443 324.2C162.921 338.208 164.363 351.882 165.84 365.887C160.31 365.887 154.896 365.887 148.924 365.887C150.372 352.169 151.812 338.526 153.32 324.241C144.221 325.227 135.563 326.165 126.568 327.14C126.568 321.741 126.568 316.673 126.568 311.207C135.448 312.185 144.135 313.141 153.435 314.165C151.923 305.326 150.504 297.027 149.022 288.363C154.565 288.363 159.938 288.363 165.688 288.363C164.275 296.738 162.869 305.073 161.342 314.122C170.255 313.156 178.936 312.214 188.025 311.228C188.025 316.385 188.025 321.439 188.025 327.107C181.285 326.374 174.578 325.645 167.449 324.872Z" fill="#F7F7F7"/>
<path d="M262.138 328.016C262.342 315.363 262.709 303.206 262.629 291.051C262.606 287.475 264.011 285.934 267.098 285.073C279.305 281.667 290.143 284.352 299.642 292.523C300.73 293.459 301.554 295.344 301.563 296.795C301.69 315.775 301.647 334.755 301.647 354.237C288.795 347.84 275.62 348.517 262.13 353.75C262.13 345.033 262.13 336.773 262.138 328.016Z" fill="#FBFBFB"/>
<path d="M260.16 300.043C260.157 319.478 260.157 338.419 260.157 357.448C274.581 350.85 289.089 348.84 303.655 358.889C313.64 349.171 325.06 348.428 337.576 356.112C337.576 336.271 337.576 316.922 337.576 297.303C340.674 298.162 343.13 299.924 343.148 303.539C343.242 322.512 343.192 341.486 343.192 361.021C334.984 360.571 327.911 360.046 320.828 359.833C313.474 359.613 306.976 361.622 302.609 368.307C295.354 362.58 287.438 363.68 279.531 365.504C269.993 367.703 260.505 370.12 250.442 372.578C250.288 370.362 250.106 368.951 250.105 367.541C250.092 346.21 250.546 324.865 249.882 303.554C249.633 295.542 252.808 291.645 260.164 289.204C260.164 292.752 260.164 296.151 260.16 300.043Z" fill="#F6F5F5"/>
<path d="M309.621 351.628C308.02 352.545 306.765 353.273 304.149 354.79C304.149 339.482 304.157 325.249 304.144 311.017C304.14 306.854 304.376 302.661 303.952 298.538C303.572 294.828 305.326 293.128 308.307 291.718C316.995 287.608 325.192 289.758 333.238 293.552C334.034 293.928 334.831 295.294 334.836 296.204C334.928 314.641 334.905 333.077 334.905 351.967C326.804 347.827 318.392 347.177 309.621 351.628Z" fill="#FBFBFB"/>
<path d="M300.336 373.315C288.72 371.525 277.977 375.164 267.174 378.567C258.973 381.151 250.711 383.543 241.94 386.182C241.94 354.799 241.94 324.428 241.94 293.901C243.944 293.901 245.55 293.901 247.727 293.901C247.727 320.71 247.727 347.378 247.727 375.294C256.713 373.244 264.886 371.326 273.086 369.53C278.113 368.429 283.144 367.211 288.239 366.602C293.34 365.993 298.215 366.977 301.728 371.818C301.185 372.74 300.761 373.027 300.336 373.315Z" fill="#F5F5F5"/>
<path d="M300.603 373.533C300.76 373.027 301.185 372.74 301.843 372.147C302.733 371.61 303.792 371.554 303.983 371.119C307.051 364.096 313.096 362.149 319.913 362.155C326.225 362.16 332.537 362.848 338.85 363.223C340.63 363.328 342.412 363.392 345.164 363.519C345.164 342.768 345.164 322.556 345.164 302.344C345.899 302.338 346.633 302.331 347.368 302.325C347.368 324.988 347.368 347.65 347.368 371.221C342.87 371 337.31 370.714 331.749 370.458C325.782 370.184 319.794 369.558 313.853 369.849C311.089 369.985 308.456 372.05 305.681 372.995C304.167 373.511 302.479 373.516 300.603 373.533Z" fill="#EDECEB"/>
<path d="M146.582 528.837C145.182 527.692 143.309 526.661 143.302 525.619C143.284 522.883 143.384 519.661 144.819 517.588C145.646 516.393 149.907 516.071 151.269 517.118C153.111 518.533 154.821 521.867 154.416 523.957C154.028 525.96 150.909 527.48 148.881 529.075C148.506 529.369 147.614 529.006 146.582 528.837Z" fill="#02A110"/>
<path d="M200.824 510.891C206.045 510.789 207.01 513.956 206.9 517.748C206.759 522.651 203.521 523.553 198.105 522.991C198.105 519.479 198.024 515.815 198.206 512.164C198.229 511.702 199.625 511.308 200.824 510.891Z" fill="#02A110"/>
</svg>
