<svg width="122" height="127" viewBox="0 0 122 127" fill="none" xmlns="http://www.w3.org/2000/svg">
<path d="M4.1314 12.3525H118.523C119.036 12.3525 119.449 12.7843 119.449 13.3206V123.116C119.449 123.653 119.036 124.084 118.523 124.084H4.1314C3.61868 124.084 3.2059 123.653 3.2059 123.116V13.3206C3.2059 12.7843 3.61868 12.3525 4.1314 12.3525Z" fill="#314CB0" stroke="#1D2D68" stroke-width="4.85049"/>
<path d="M32.7222 58.6367L49.6498 37.2265C53.11 32.862 54.8401 29.5983 54.8402 27.4356C54.8401 26.6493 54.7418 26.0202 54.5453 25.5482H84.0949C81.8535 26.8066 79.0421 29.4607 75.6605 33.5107C74.7561 34.5724 73.1636 36.5188 70.8831 39.3498L48.7061 66.953L75.1887 103.403C76.8008 105.605 78.8455 108.083 81.3228 110.835C81.9911 111.543 82.9545 112.388 84.2128 113.371H53.8965C54.1324 112.467 54.2503 111.661 54.2504 110.953C54.2503 108.79 52.7561 105.664 49.7678 101.575L32.7222 78.3364V101.87C32.7222 107.335 33.8232 111.169 36.0252 113.371H8.30402C9.83752 111.838 10.8205 110.088 11.2531 108.122C11.489 107.021 11.607 104.957 11.607 101.929V36.9905C11.607 33.9629 11.489 31.8986 11.2531 30.7975C10.8205 28.8316 9.83752 27.0818 8.30402 25.5482H36.0252C33.8232 27.7503 32.7222 31.5643 32.7222 36.9905V58.6367Z" fill="white"/>
<path d="M111.934 48.8458V102.991C111.934 105.822 112.013 107.67 112.17 108.535C112.484 110.304 113.31 111.916 114.647 113.371H88.6954C90.0323 111.916 90.858 110.304 91.1726 108.535C91.3299 107.67 91.4085 105.822 91.4085 102.991V59.1085C91.4085 56.2775 91.3298 54.449 91.1726 53.6232C90.858 51.8932 90.052 50.3007 88.7544 48.8458H111.934ZM101.671 17.9986C104.935 17.9987 107.707 19.1587 109.988 21.4785C112.308 23.7592 113.467 26.5313 113.467 29.7949C113.467 33.1372 112.327 35.9487 110.047 38.2292C107.805 40.4705 105.014 41.5911 101.671 41.5911C98.4076 41.5911 95.6158 40.4508 93.2959 38.1702C91.0153 35.8503 89.875 33.0586 89.875 29.7949C89.875 26.4527 90.9957 23.6609 93.237 21.4195C95.5175 19.139 98.329 17.9987 101.671 17.9986Z" fill="white"/>
<path d="M87.7428 17.0281H116.058V44.059H87.7428V17.0281Z" fill="#314CB0"/>
<path d="M113.621 12.3814C113.621 18.9838 108.253 24.3361 101.631 24.3361C95.009 24.3361 89.6408 18.9838 89.6408 12.3814C89.6408 5.77897 95.009 0.426636 101.631 0.426636C108.253 0.426636 113.621 5.77897 113.621 12.3814Z" fill="#FF7700"/>
</svg>
