<svg width="76" height="77" viewBox="0 0 76 77" fill="none" xmlns="http://www.w3.org/2000/svg">
<path d="M27.6947 24.3807C30.3883 26.6844 34.735 29.0859 38.5075 30.5842C35.2624 28.1972 32.033 25.5067 28.8095 21.9853C31.4926 16.1861 34.6965 8.17626 37.9996 0C43.3849 13.9462 53.4222 34.9344 66.8686 59.836C63.2155 57.803 59.9057 56.6454 56.4883 55.751C57.6209 56.4062 60.298 57.8869 62.0157 59.0771C64.7291 60.9573 67.2404 63.0133 69.6019 64.982C71.7097 68.9102 73.8434 72.9197 76 76.9998C65.2745 70.7056 54.8517 65.6069 46.3125 64.032C49.108 48.3145 38.1663 39.0415 31.9497 49.0458C29.556 52.8977 28.9086 59.2443 30.0437 63.9602C19.2474 66.0674 8.68404 71.9657 0 77C10.115 58.4231 20.3416 39.5912 27.6947 24.3807Z" fill="#3A8DD2"/>
</svg>
