<svg xmlns="http://www.w3.org/2000/svg" width="250" height="250" viewBox="0 0 250 250">
<g>
<path d="M 250.00,250.00 L 0.00,250.00 L 0.00,0.00 L 250.00,0.00 M 120.99,85.49 L 119.07,85.60 L 115.26,85.88 L 113.41,86.12 L 109.74,86.68 L 107.99,87.06 L 104.57,87.89 L 102.99,88.41 L 98.32,90.04 L 95.44,91.16 L 94.10,91.75 L 88.97,94.20 L 86.64,95.64 L 82.09,98.69 L 79.86,100.54 L 77.62,102.46 L 76.47,103.53 L 74.17,105.72 L 72.97,106.94 L 68.76,111.53 L 66.21,114.65 L 65.06,116.25 L 62.84,119.46 L 61.86,121.11 L 59.97,124.43 L 59.15,126.13 L 57.58,129.57 L 56.92,131.34 L 55.68,134.91 L 55.17,136.75 L 54.23,140.46 L 53.88,142.38 L 53.25,146.25 L 53.04,148.25 L 52.63,156.14 L 52.75,161.30 L 53.01,163.82 L 53.66,168.83 L 54.18,171.26 L 55.35,176.09 L 56.13,178.43 L 57.81,183.07 L 58.84,185.31 L 61.03,189.74 L 62.31,191.86 L 65.01,196.06 L 66.54,198.06 L 69.72,202.01 L 71.50,203.88 L 75.76,208.15 L 78.55,210.71 L 79.95,211.85 L 82.74,214.06 L 84.17,215.05 L 87.04,216.96 L 88.54,217.81 L 91.58,219.46 L 93.19,220.20 L 96.48,221.64 L 98.24,222.30 L 101.85,223.57 L 103.80,224.16 L 107.82,225.31 L 110.00,225.86 L 112.16,226.28 L 112.94,226.24 L 114.32,225.98 L 114.74,225.59 L 115.06,225.01 L 115.33,224.29 L 115.49,223.78 L 115.84,222.68 L 116.03,221.99 L 116.42,220.54 L 116.64,219.71 L 117.53,216.09 L 118.01,213.97 L 118.99,209.54 L 119.47,207.17 L 120.69,201.15 L 121.38,197.83 L 121.68,196.49 L 122.23,194.01 L 122.47,193.04 L 122.91,191.29 L 123.11,190.65 L 123.47,189.52 L 123.64,189.16 L 123.96,188.57 L 124.11,188.44 L 124.41,188.27 L 124.57,188.32 L 124.89,188.49 L 125.06,188.66 L 125.26,189.16 L 125.46,189.84 L 125.59,190.34 L 125.88,191.43 L 126.04,192.10 L 126.39,193.54 L 126.58,194.36 L 127.41,197.92 L 127.87,199.97 L 128.81,204.21 L 129.28,206.42 L 130.23,210.84 L 130.66,212.95 L 131.51,217.05 L 131.85,218.81 L 132.18,220.50 L 132.32,221.25 L 132.59,222.66 L 132.69,223.24 L 132.86,224.31 L 132.92,224.69 L 133.00,225.34 L 133.00,225.50 L 133.37,225.81 L 133.97,225.89 L 134.43,225.86 L 135.43,225.77 L 136.05,225.67 L 137.38,225.43 L 138.15,225.26 L 141.45,224.44 L 143.33,223.86 L 147.19,222.61 L 149.13,221.86 L 154.14,219.70 L 157.40,218.05 L 158.98,217.12 L 162.10,215.20 L 163.61,214.15 L 166.58,211.97 L 168.01,210.79 L 170.83,208.38 L 172.17,207.08 L 174.81,204.43 L 176.06,203.02 L 178.52,200.15 L 179.67,198.64 L 181.91,195.56 L 182.96,193.95 L 187.65,185.36 L 190.12,179.34 L 191.03,176.23 L 192.64,169.93 L 193.11,166.72 L 193.85,160.26 L 193.89,157.00 L 193.75,150.48 L 193.35,147.23 L 192.34,140.77 L 191.50,137.59 L 189.61,131.28 L 188.34,128.23 L 185.58,122.20 L 183.87,119.32 L 180.98,115.03 L 178.74,112.15 L 177.49,110.72 L 174.90,107.90 L 173.51,106.53 L 170.67,103.83 L 169.18,102.55 L 166.17,100.05 L 164.63,98.91 L 161.54,96.69 L 160.00,95.71 L 156.92,93.84 L 155.41,93.07 L 152.43,91.63 L 151.00,91.10 L 147.94,89.94 L 146.97,89.57 L 146.55,89.41 L 145.78,89.10 L 145.50,88.99 L 141.01,87.52 L 137.72,86.73 L 135.96,86.44 L 132.38,85.91 L 130.52,85.75 L 126.75,85.50 L 124.83,85.47 M 156.01,149.87 L 158.63,150.03 L 159.91,150.27 L 162.44,150.86 L 163.65,151.30 L 166.05,152.30 L 167.18,152.95 L 169.40,154.36 L 170.43,155.21 L 172.42,157.01 L 173.32,158.06 L 176.19,162.10 L 177.56,164.87 L 177.98,166.35 L 178.66,169.39 L 178.76,171.07 L 178.81,174.54 L 178.61,176.50 L 177.58,181.51 L 176.39,184.55 L 175.53,185.94 L 173.64,188.65 L 172.41,189.89 L 169.77,192.32 L 168.16,193.46 L 166.46,194.61 L 165.69,195.02 L 164.17,195.74 L 163.35,195.97 L 161.63,196.37 L 160.55,196.49 L 158.22,196.69 L 156.69,196.75 L 153.80,196.79 L 152.07,196.74 L 151.29,196.67 L 148.35,196.24 L 147.05,195.77 L 144.52,194.67 L 143.25,193.81 L 141.96,192.90 L 141.29,192.35 L 139.91,191.20 L 139.16,190.53 L 135.70,186.67 L 134.00,183.87 L 133.43,182.32 L 132.49,179.09 L 132.28,177.27 L 132.03,173.47 L 132.16,171.30 L 132.51,168.10 L 132.90,166.10 L 133.17,165.17 L 133.78,163.34 L 134.16,162.48 L 134.99,160.82 L 135.49,160.05 L 136.53,158.54 L 137.14,157.85 L 138.42,156.50 L 139.14,155.88 L 140.64,154.68 L 141.48,154.13 L 143.22,153.08 L 144.18,152.60 L 148.08,151.02 L 150.72,150.31 L 152.05,150.12 L 154.70,149.85 M 89.97,134.25 L 92.66,134.54 L 93.99,134.87 L 96.64,135.65 L 97.94,136.23 L 100.52,137.52 L 101.76,138.35 L 104.51,140.47 L 106.15,142.01 L 106.87,142.83 L 108.24,144.51 L 108.83,145.39 L 109.93,147.19 L 110.39,148.12 L 111.23,150.01 L 111.55,150.97 L 112.14,152.92 L 112.33,153.91 L 112.84,157.91 L 112.72,159.90 L 112.20,163.87 L 111.57,165.78 L 110.87,167.66 L 110.42,168.57 L 109.47,170.37 L 108.90,171.23 L 107.70,172.91 L 107.01,173.70 L 105.56,175.25 L 104.74,175.96 L 103.05,177.33 L 102.11,177.95 L 100.17,179.14 L 99.11,179.65 L 96.11,180.83 L 94.39,181.18 L 90.84,181.71 L 89.03,181.74 L 85.42,181.62 L 83.76,181.32 L 82.13,180.98 L 81.38,180.74 L 79.93,180.23 L 79.29,179.92 L 74.21,176.65 L 71.37,174.04 L 70.23,172.57 L 68.14,169.52 L 67.39,167.88 L 66.08,164.52 L 65.73,162.77 L 65.22,159.23 L 65.28,157.44 L 65.61,153.84 L 66.10,152.07 L 67.28,148.56 L 68.21,146.88 L 70.28,143.57 L 71.65,142.04 L 74.83,139.06 L 77.11,137.43 L 78.32,136.79 L 80.79,135.62 L 82.06,135.22 L 84.65,134.53 L 85.97,134.37 L 88.63,134.17 M 127.49,104.09 L 129.36,104.43 L 130.26,104.72 L 132.02,105.41 L 132.84,105.88 L 134.45,106.91 L 135.20,107.54 L 136.64,108.90 L 137.29,109.70 L 138.53,111.37 L 139.07,112.33 L 140.16,114.79 L 140.63,116.45 L 140.73,117.30 L 140.85,118.98 L 140.79,119.82 L 140.58,121.50 L 140.35,122.32 L 139.81,123.96 L 139.42,124.76 L 138.56,126.33 L 138.01,127.09 L 136.84,128.58 L 136.14,129.29 L 134.66,130.66 L 133.80,131.30 L 132.26,132.20 L 131.20,132.55 L 128.92,133.19 L 127.66,133.38 L 125.08,133.68 L 123.84,133.69 L 121.41,133.59 L 120.40,133.36 L 119.32,132.91 L 118.42,132.38 L 117.93,132.02 L 115.87,130.39 L 114.94,129.44 L 113.17,127.42 L 112.36,126.19 L 112.10,125.51 L 111.67,124.08 L 111.54,123.15 L 111.32,121.12 L 111.24,119.74 L 111.44,114.65 L 112.10,111.79 L 112.70,110.61 L 114.07,108.42 L 115.03,107.56 L 117.15,106.00 L 118.49,105.44 L 121.57,104.43 L 123.59,104.04 L 124.58,103.99 L 126.54,103.97 M 175.71,19.82 L 173.16,20.08 L 171.98,20.57 L 170.81,21.11 L 170.28,21.48 L 169.24,22.27 L 168.78,22.75 L 166.85,25.26 L 166.36,26.09 L 166.19,26.46 L 165.89,27.15 L 165.85,27.42 L 165.48,28.25 L 165.04,28.80 L 164.74,29.06 L 163.35,30.02 L 162.50,30.29 L 159.50,31.66 L 157.66,32.98 L 156.75,33.91 L 154.92,35.96 L 153.95,37.33 L 152.96,38.77 L 152.43,39.59 L 151.36,41.29 L 150.79,42.25 L 149.19,44.87 L 148.22,46.41 L 147.81,47.02 L 147.06,48.12 L 146.79,48.47 L 146.36,49.00 L 146.29,49.00 L 145.89,48.86 L 145.45,48.63 L 145.17,48.46 L 143.88,47.68 L 143.15,47.17 L 139.93,45.33 L 137.56,44.32 L 136.29,43.92 L 133.70,43.20 L 132.35,42.95 L 129.61,42.53 L 128.20,42.43 L 125.37,42.30 L 123.95,42.36 L 121.10,42.54 L 119.69,42.74 L 116.90,43.24 L 115.54,43.60 L 112.86,44.41 L 111.58,44.93 L 109.39,45.86 L 108.22,46.33 L 107.75,46.48 L 106.87,46.70 L 106.49,46.70 L 105.77,46.61 L 105.43,46.43 L 104.76,45.96 L 104.40,45.57 L 103.65,44.66 L 103.21,44.02 L 102.28,42.61 L 101.70,41.70 L 100.45,39.72 L 99.68,38.50 L 96.12,34.11 L 93.38,31.85 L 91.77,31.00 L 89.57,29.71 L 88.42,28.87 L 88.00,28.45 L 87.24,27.60 L 86.98,27.16 L 86.56,26.25 L 86.45,25.76 L 85.39,23.28 L 84.25,21.96 L 83.47,21.47 L 81.78,20.62 L 80.74,20.37 L 78.52,20.00 L 77.23,20.00 L 74.17,20.42 L 72.39,21.09 L 71.65,21.59 L 70.26,22.69 L 69.72,23.36 L 68.76,24.78 L 68.45,25.57 L 67.96,27.21 L 67.90,28.09 L 67.90,29.85 L 68.11,30.75 L 68.66,32.54 L 69.15,33.41 L 70.28,35.13 L 71.08,35.92 L 73.69,37.87 L 75.58,38.73 L 76.49,38.92 L 78.24,39.13 L 78.94,38.97 L 79.61,38.76 L 79.89,38.59 L 80.39,38.19 L 80.56,37.91 L 81.13,37.50 L 81.73,37.34 L 82.11,37.31 L 83.85,37.33 L 84.85,37.51 L 86.91,37.98 L 87.84,38.34 L 89.60,39.15 L 90.14,39.64 L 91.08,40.69 L 91.91,41.78 L 92.40,42.45 L 94.48,45.48 L 95.50,47.14 L 99.22,53.16 L 95.92,59.66 L 93.78,64.97 L 92.70,68.77 L 92.38,70.62 L 91.87,74.23 L 91.87,75.77 L 91.90,77.26 L 91.99,77.90 L 92.21,79.11 L 92.39,79.58 L 92.94,80.52 L 93.41,80.69 L 94.48,80.81 L 95.26,80.59 L 96.57,80.22 L 97.76,79.88 L 98.46,79.68 L 101.49,78.81 L 103.00,78.38 L 106.80,77.54 L 109.81,77.07 L 111.49,76.89 L 114.96,76.57 L 116.80,76.45 L 120.53,76.26 L 122.44,76.22 L 130.12,76.20 L 133.66,76.41 L 137.13,76.65 L 138.70,76.83 L 141.72,77.24 L 143.00,77.50 L 147.97,78.50 L 150.64,79.03 L 151.70,79.22 L 153.63,79.56 L 154.37,79.66 L 155.69,79.80 L 156.17,79.80 L 157.01,79.75 L 157.30,79.66 L 157.79,79.42 L 157.95,79.22 L 158.40,78.26 L 158.59,77.50 L 158.78,75.95 L 158.78,74.69 L 158.73,73.97 L 158.37,70.87 L 158.01,69.20 L 157.19,65.81 L 156.66,64.25 L 156.11,62.73 L 155.82,62.05 L 155.22,60.74 L 154.91,60.19 L 153.56,57.44 L 153.25,56.62 L 153.15,56.28 L 153.00,55.67 L 153.00,55.47 L 153.36,54.36 L 153.94,53.16 L 154.35,52.38 L 155.27,50.74 L 155.82,49.81 L 156.98,47.91 L 157.61,46.93 L 159.51,44.20 L 160.77,42.60 L 161.39,41.91 L 162.62,40.60 L 163.23,40.05 L 164.43,39.05 L 165.01,38.66 L 166.16,37.96 L 166.72,37.73 L 167.81,37.36 L 168.33,37.29 L 169.35,37.24 L 169.83,37.34 L 170.77,37.62 L 171.20,37.90 L 172.79,38.63 L 173.90,38.91 L 174.48,38.95 L 176.83,38.85 L 178.00,38.43 L 180.31,37.36 L 181.35,36.50 L 183.34,34.56 L 184.13,33.30 L 185.41,30.52 L 185.72,28.80 L 185.60,27.95 L 185.16,26.27 L 184.66,25.40 L 183.46,23.63 L 182.57,22.67 L 181.11,21.42 L 180.02,20.76 L 179.43,20.52 L 176.99,19.82 Z" fill="rgb(237,49,50)"/>
<path d="M 124.88,183.22 L 125.18,183.58 L 125.30,183.86 L 125.64,185.23 L 125.64,186.25 L 125.71,187.26 L 125.83,188.26 L 125.93,188.91 L 126.13,190.28 L 126.27,191.09 L 126.55,192.79 L 126.72,193.73 L 127.45,197.77 L 127.89,200.05 L 127.89,200.07 L 127.87,199.97 L 127.41,197.92 L 126.58,194.36 L 126.39,193.54 L 126.04,192.10 L 125.88,191.43 L 125.59,190.34 L 125.46,189.84 L 125.26,189.16 L 125.06,188.66 L 124.89,188.49 L 124.57,188.32 L 124.41,188.27 L 124.11,188.44 L 123.96,188.57 L 123.64,189.16 L 123.47,189.52 L 123.11,190.65 L 122.91,191.29 L 122.47,193.04 L 122.23,194.01 L 121.84,195.77 L 122.12,194.17 L 122.43,192.32 L 122.56,191.49 L 122.81,189.90 L 122.90,189.22 L 123.05,187.94 L 123.09,187.44 L 123.15,186.54 L 123.14,186.25 L 123.17,184.86 L 123.28,184.11 L 123.38,183.84 L 123.61,183.35 L 123.77,183.21 L 124.11,183.00 L 124.33,183.00 Z" fill="rgb(244,140,124)"/>
<path d="M 174.13,38.92 L 173.90,38.91 L 172.79,38.63 L 171.20,37.90 L 173.06,38.68 M 178.00,38.43 L 176.83,38.85 L 175.57,38.90 L 177.45,38.55 L 179.09,37.93 M 180.31,37.36 L 179.41,37.78 L 180.06,37.43 L 180.64,37.09 M 182.57,22.67 L 183.46,23.63 L 184.66,25.40 L 185.16,26.27 L 185.60,27.95 L 185.72,28.80 L 185.41,30.52 L 184.13,33.30 L 183.34,34.56 L 183.06,34.83 L 183.07,34.72 L 183.25,30.48 L 183.26,28.09 L 183.21,27.11 L 183.05,25.27 L 182.89,24.53 L 182.53,23.17 L 182.26,22.64 L 181.93,22.12 M 178.09,20.14 L 177.92,20.12 L 176.40,20.00 L 175.50,20.00 L 173.38,20.13 L 172.72,20.26 L 173.16,20.08 L 175.71,19.82 L 176.99,19.82 M 169.24,22.27 L 168.78,22.75 L 169.24,22.27 Z" fill="rgb(250,215,204)"/>
<path d="M 110.00,225.86 L 107.82,225.31 L 103.80,224.16 L 101.85,223.57 L 98.24,222.30 L 96.48,221.64 L 93.19,220.20 L 91.58,219.46 L 88.54,217.81 L 87.04,216.96 L 84.17,215.05 L 82.74,214.06 L 79.95,211.85 L 78.55,210.71 L 75.76,208.15 L 71.50,203.88 L 69.72,202.01 L 66.54,198.06 L 65.01,196.06 L 62.31,191.86 L 61.03,189.74 L 58.84,185.31 L 57.81,183.07 L 56.13,178.43 L 55.35,176.09 L 54.18,171.26 L 53.66,168.83 L 53.01,163.82 L 52.75,161.30 L 52.63,156.14 L 53.04,148.25 L 53.25,146.25 L 53.88,142.38 L 54.23,140.46 L 55.17,136.75 L 55.68,134.91 L 56.92,131.34 L 57.58,129.57 L 59.15,126.13 L 59.97,124.43 L 61.86,121.11 L 62.84,119.46 L 65.06,116.25 L 66.21,114.65 L 68.76,111.53 L 72.97,106.94 L 74.17,105.72 L 76.47,103.53 L 77.62,102.46 L 79.86,100.54 L 82.09,98.69 L 86.64,95.64 L 88.97,94.20 L 94.10,91.75 L 95.44,91.16 L 98.32,90.04 L 102.99,88.41 L 104.57,87.89 L 107.99,87.06 L 109.74,86.68 L 113.41,86.12 L 115.26,85.88 L 119.07,85.60 L 120.99,85.49 L 124.83,85.47 L 126.75,85.50 L 130.52,85.75 L 132.38,85.91 L 135.96,86.44 L 137.72,86.73 L 141.01,87.52 L 145.50,88.99 L 145.78,89.10 L 146.55,89.41 L 146.97,89.57 L 147.94,89.94 L 151.00,91.10 L 152.43,91.63 L 155.41,93.07 L 156.92,93.84 L 160.00,95.71 L 161.54,96.69 L 164.63,98.91 L 166.17,100.05 L 169.18,102.55 L 170.67,103.83 L 173.51,106.53 L 174.90,107.90 L 177.49,110.72 L 178.74,112.15 L 180.98,115.03 L 183.87,119.32 L 185.58,122.20 L 188.34,128.23 L 189.61,131.28 L 191.50,137.59 L 192.34,140.77 L 193.35,147.23 L 193.75,150.48 L 193.89,157.00 L 193.85,160.26 L 193.11,166.72 L 192.64,169.93 L 191.03,176.23 L 190.12,179.34 L 187.65,185.36 L 182.96,193.95 L 181.91,195.56 L 179.67,198.64 L 178.52,200.15 L 176.06,203.02 L 174.81,204.43 L 172.17,207.08 L 170.83,208.38 L 168.01,210.79 L 166.58,211.97 L 163.61,214.15 L 162.10,215.20 L 158.98,217.12 L 157.40,218.05 L 154.14,219.70 L 149.13,221.86 L 147.19,222.61 L 143.33,223.86 L 141.45,224.44 L 138.15,225.26 L 137.38,225.43 L 136.05,225.67 L 135.43,225.77 L 134.43,225.86 L 133.97,225.89 L 133.37,225.81 L 133.00,225.50 L 133.00,225.45 L 132.92,225.00 L 132.88,224.72 L 132.71,223.84 L 132.62,223.35 L 132.37,222.09 L 132.24,221.42 L 131.92,219.83 L 131.58,218.17 L 130.75,214.07 L 129.32,207.16 L 128.81,204.73 L 127.89,200.05 L 127.45,197.77 L 126.72,193.73 L 126.55,192.79 L 126.27,191.09 L 126.13,190.28 L 125.93,188.91 L 125.83,188.26 L 125.71,187.26 L 125.64,186.25 L 125.64,185.23 L 125.30,183.86 L 125.18,183.58 L 124.88,183.22 L 124.33,183.00 L 124.11,183.00 L 123.77,183.21 L 123.61,183.35 L 123.38,183.84 L 123.28,184.11 L 123.17,184.86 L 123.14,186.25 L 123.15,186.54 L 123.09,187.44 L 123.05,187.94 L 122.90,189.22 L 122.81,189.90 L 122.56,191.49 L 122.43,192.32 L 122.12,194.17 L 121.79,196.07 L 120.96,200.38 L 120.52,202.59 L 119.57,207.15 L 119.08,209.42 L 118.10,213.77 L 117.61,215.87 L 116.70,219.52 L 116.49,220.37 L 116.08,221.85 L 115.88,222.55 L 115.53,223.70 L 115.36,224.23 L 115.08,224.98 L 114.74,225.59 L 114.32,225.98 L 112.94,226.24 L 112.16,226.28 M 168.16,193.46 L 169.77,192.32 L 172.41,189.89 L 173.64,188.65 L 175.53,185.94 L 176.39,184.55 L 177.58,181.51 L 178.61,176.50 L 178.81,174.54 L 178.76,171.07 L 178.66,169.39 L 177.98,166.35 L 177.56,164.87 L 176.19,162.10 L 173.32,158.06 L 172.42,157.01 L 170.43,155.21 L 169.40,154.36 L 167.18,152.95 L 166.05,152.30 L 163.65,151.30 L 162.44,150.86 L 159.91,150.27 L 158.63,150.03 L 156.01,149.87 L 154.70,149.85 L 152.05,150.12 L 150.72,150.31 L 148.08,151.02 L 144.18,152.60 L 143.22,153.08 L 141.48,154.13 L 140.64,154.68 L 139.14,155.88 L 138.42,156.50 L 137.14,157.85 L 136.53,158.54 L 135.49,160.05 L 134.99,160.82 L 134.16,162.48 L 133.78,163.34 L 133.17,165.17 L 132.90,166.10 L 132.51,168.10 L 132.16,171.30 L 132.03,173.47 L 132.28,177.27 L 132.49,179.09 L 133.43,182.32 L 134.00,183.87 L 135.70,186.67 L 139.16,190.53 L 139.91,191.20 L 141.29,192.35 L 141.96,192.90 L 143.25,193.81 L 144.52,194.67 L 147.05,195.77 L 148.35,196.24 L 151.29,196.67 L 152.07,196.74 L 153.80,196.79 L 156.69,196.75 L 158.22,196.69 L 160.55,196.49 L 161.63,196.37 L 163.35,195.97 L 164.17,195.74 L 165.69,195.02 L 166.46,194.61 M 99.11,179.65 L 100.17,179.14 L 102.11,177.95 L 103.05,177.33 L 104.74,175.96 L 105.56,175.25 L 107.01,173.70 L 107.70,172.91 L 108.90,171.23 L 109.47,170.37 L 110.42,168.57 L 110.87,167.66 L 111.57,165.78 L 112.20,163.87 L 112.72,159.90 L 112.84,157.91 L 112.33,153.91 L 112.14,152.92 L 111.55,150.97 L 111.23,150.01 L 110.39,148.12 L 109.93,147.19 L 108.83,145.39 L 108.24,144.51 L 106.87,142.83 L 106.15,142.01 L 104.51,140.47 L 101.76,138.35 L 100.52,137.52 L 97.94,136.23 L 96.64,135.65 L 93.99,134.87 L 92.66,134.54 L 89.97,134.25 L 88.63,134.17 L 85.97,134.37 L 84.65,134.53 L 82.06,135.22 L 80.79,135.62 L 78.32,136.79 L 77.11,137.43 L 74.83,139.06 L 71.65,142.04 L 70.28,143.57 L 68.21,146.88 L 67.28,148.56 L 66.10,152.07 L 65.61,153.84 L 65.28,157.44 L 65.22,159.23 L 65.73,162.77 L 66.08,164.52 L 67.39,167.88 L 68.14,169.52 L 70.23,172.57 L 71.37,174.04 L 74.21,176.65 L 79.29,179.92 L 79.93,180.23 L 81.38,180.74 L 82.13,180.98 L 83.76,181.32 L 85.42,181.62 L 89.03,181.74 L 90.84,181.71 L 94.39,181.18 L 96.11,180.83 M 133.80,131.30 L 134.66,130.66 L 136.14,129.29 L 136.84,128.58 L 138.01,127.09 L 138.56,126.33 L 139.42,124.76 L 139.81,123.96 L 140.35,122.32 L 140.58,121.50 L 140.79,119.82 L 140.85,118.98 L 140.73,117.30 L 140.63,116.45 L 140.16,114.79 L 139.07,112.33 L 138.53,111.37 L 137.29,109.70 L 136.64,108.90 L 135.20,107.54 L 134.45,106.91 L 132.84,105.88 L 132.02,105.41 L 130.26,104.72 L 129.36,104.43 L 127.49,104.09 L 126.54,103.97 L 124.58,103.99 L 123.59,104.04 L 121.57,104.43 L 118.49,105.44 L 117.15,106.00 L 115.03,107.56 L 114.07,108.42 L 112.70,110.61 L 112.10,111.79 L 111.44,114.65 L 111.24,119.74 L 111.32,121.12 L 111.54,123.15 L 111.67,124.08 L 112.10,125.51 L 112.36,126.19 L 113.17,127.42 L 114.94,129.44 L 115.87,130.39 L 117.93,132.02 L 118.42,132.38 L 119.32,132.91 L 120.40,133.36 L 121.41,133.59 L 123.84,133.69 L 125.08,133.68 L 127.66,133.38 L 128.92,133.19 L 131.20,132.55 L 132.26,132.20 M 92.39,79.58 L 92.21,79.11 L 91.99,77.90 L 91.90,77.26 L 91.87,75.77 L 91.87,74.23 L 92.38,70.62 L 92.70,68.77 L 93.78,64.97 L 95.92,59.66 L 99.22,53.16 L 95.50,47.14 L 94.48,45.48 L 92.40,42.45 L 91.91,41.78 L 91.08,40.69 L 90.14,39.64 L 89.60,39.15 L 87.84,38.34 L 86.91,37.98 L 84.85,37.51 L 83.85,37.33 L 82.11,37.31 L 81.73,37.34 L 81.13,37.50 L 80.56,37.91 L 80.39,38.19 L 79.89,38.59 L 79.61,38.76 L 78.94,38.97 L 78.24,39.13 L 76.49,38.92 L 75.58,38.73 L 73.69,37.87 L 71.08,35.92 L 70.28,35.13 L 69.15,33.41 L 68.66,32.54 L 68.11,30.75 L 67.90,29.85 L 67.90,28.09 L 67.96,27.21 L 68.45,25.57 L 68.76,24.78 L 69.72,23.36 L 70.26,22.69 L 71.65,21.59 L 72.39,21.09 L 74.17,20.42 L 77.23,20.00 L 78.52,20.00 L 80.74,20.37 L 81.78,20.62 L 83.47,21.47 L 84.25,21.96 L 85.39,23.28 L 86.45,25.76 L 86.56,26.25 L 86.98,27.16 L 87.24,27.60 L 88.00,28.45 L 88.42,28.87 L 89.57,29.71 L 91.77,31.00 L 93.38,31.85 L 96.12,34.11 L 99.68,38.50 L 100.45,39.72 L 101.70,41.70 L 102.28,42.61 L 103.21,44.02 L 103.65,44.66 L 104.40,45.57 L 104.76,45.96 L 105.43,46.43 L 105.77,46.61 L 106.49,46.70 L 106.87,46.70 L 107.75,46.48 L 108.22,46.33 L 109.39,45.86 L 111.58,44.93 L 112.86,44.41 L 115.54,43.60 L 116.90,43.24 L 119.69,42.74 L 121.10,42.54 L 123.95,42.36 L 125.37,42.30 L 128.20,42.43 L 129.61,42.53 L 132.35,42.95 L 133.70,43.20 L 136.29,43.92 L 137.56,44.32 L 139.93,45.33 L 143.15,47.17 L 143.88,47.68 L 145.17,48.46 L 145.45,48.63 L 145.89,48.86 L 146.29,49.00 L 146.36,49.00 L 146.79,48.47 L 147.06,48.12 L 147.81,47.02 L 148.22,46.41 L 149.19,44.87 L 150.79,42.25 L 151.36,41.29 L 152.43,39.59 L 152.96,38.77 L 153.95,37.33 L 154.92,35.96 L 156.75,33.91 L 157.66,32.98 L 159.50,31.66 L 162.50,30.29 L 163.35,30.02 L 164.74,29.06 L 165.04,28.80 L 165.48,28.25 L 165.85,27.42 L 165.89,27.15 L 166.19,26.46 L 166.36,26.09 L 166.85,25.26 L 168.78,22.75 L 169.29,22.22 L 170.23,21.42 L 170.70,21.06 L 171.69,20.57 L 172.21,20.36 L 173.38,20.13 L 175.50,20.00 L 176.40,20.00 L 177.92,20.12 L 178.64,20.20 L 179.82,20.53 L 180.37,20.73 L 181.25,21.34 L 181.66,21.68 L 182.26,22.64 L 182.53,23.17 L 182.89,24.53 L 183.05,25.27 L 183.21,27.11 L 183.26,28.09 L 183.25,30.48 L 183.07,34.72 L 183.06,34.91 L 182.81,35.35 L 182.66,35.57 L 182.17,36.03 L 181.63,36.51 L 180.06,37.43 L 179.24,37.87 L 177.45,38.55 L 175.04,39.00 L 174.47,39.00 L 173.06,38.68 L 171.20,37.90 L 170.77,37.62 L 169.83,37.34 L 169.35,37.24 L 168.33,37.29 L 167.81,37.36 L 166.72,37.73 L 166.16,37.96 L 165.01,38.66 L 164.43,39.05 L 163.23,40.05 L 162.62,40.60 L 161.39,41.91 L 160.77,42.60 L 159.51,44.20 L 157.61,46.93 L 156.98,47.91 L 155.82,49.81 L 155.27,50.74 L 154.35,52.38 L 153.94,53.16 L 153.36,54.36 L 153.00,55.47 L 153.00,55.67 L 153.15,56.28 L 153.25,56.62 L 153.56,57.44 L 154.91,60.19 L 155.22,60.74 L 155.82,62.05 L 156.11,62.73 L 156.66,64.25 L 157.19,65.81 L 158.01,69.20 L 158.37,70.87 L 158.73,73.97 L 158.78,74.69 L 158.78,75.95 L 158.59,77.50 L 158.40,78.26 L 157.95,79.22 L 157.79,79.42 L 157.30,79.66 L 157.01,79.75 L 156.17,79.80 L 155.69,79.80 L 154.37,79.66 L 153.63,79.56 L 151.70,79.22 L 150.64,79.03 L 147.97,78.50 L 143.00,77.50 L 141.72,77.24 L 138.70,76.83 L 137.13,76.65 L 133.66,76.41 L 130.12,76.20 L 122.44,76.22 L 120.53,76.26 L 116.80,76.45 L 114.96,76.57 L 111.49,76.89 L 109.81,77.07 L 106.80,77.54 L 103.00,78.38 L 101.49,78.81 L 98.46,79.68 L 97.76,79.88 L 96.57,80.22 L 95.26,80.59 L 94.48,80.81 L 93.41,80.69 L 92.94,80.52 Z" fill="rgb(254,253,252)"/>
</g>
</svg>