<svg width="53" height="52" viewBox="0 0 53 52" fill="none" xmlns="http://www.w3.org/2000/svg">
<path d="M25.9476 0C12.6777 0 13.5063 5.75461 13.5063 5.75461L13.521 11.7166H26.1842V13.5065H8.49139C8.49139 13.5065 0 12.5435 0 25.9327C0 39.3223 7.4115 38.8474 7.4115 38.8474H11.8347V32.6341C11.8347 32.6341 11.5962 25.2226 19.1278 25.2226H31.6875C31.6875 25.2226 38.7439 25.3366 38.7439 18.4029V6.93828C38.7439 6.93828 39.8156 0 25.9476 0ZM18.9651 4.00929C19.2644 4.00902 19.5607 4.06776 19.8372 4.18215C20.1137 4.29654 20.365 4.46434 20.5766 4.67593C20.7882 4.88753 20.956 5.13877 21.0704 5.41528C21.1848 5.69179 21.2435 5.98815 21.2432 6.28739C21.2435 6.58663 21.1848 6.88299 21.0704 7.1595C20.956 7.43601 20.7882 7.68726 20.5766 7.89885C20.365 8.11045 20.1137 8.27824 19.8372 8.39263C19.5607 8.50702 19.2644 8.56576 18.9651 8.56549C18.6659 8.56576 18.3695 8.50702 18.093 8.39263C17.8165 8.27824 17.5653 8.11045 17.3537 7.89885C17.1421 7.68726 16.9743 7.43601 16.8599 7.1595C16.7455 6.88299 16.6868 6.58663 16.687 6.28739C16.6868 5.98815 16.7455 5.69179 16.8599 5.41528C16.9743 5.13877 17.1421 4.88753 17.3537 4.67593C17.5653 4.46434 17.8165 4.29654 18.093 4.18215C18.3695 4.06776 18.6659 4.00902 18.9651 4.00929Z" fill="url(#paint0_linear_29_213)"/>
<path d="M26.3244 52C39.5943 52 38.7658 46.2454 38.7658 46.2454L38.751 40.2837H26.0876V38.4937H43.7804C43.7804 38.4937 52.2718 39.4568 52.2718 26.0671C52.2718 12.6777 44.8603 13.1526 44.8603 13.1526H40.4372V19.3657C40.4372 19.3657 40.6756 26.7772 33.144 26.7772H20.5844C20.5844 26.7772 13.528 26.6632 13.528 33.5972V45.062C13.528 45.062 12.4565 52 26.3242 52H26.3244ZM33.3069 47.9911C33.0077 47.9914 32.7113 47.9327 32.4348 47.8183C32.1583 47.7039 31.9071 47.5361 31.6955 47.3245C31.4839 47.1129 31.3161 46.8617 31.2017 46.5851C31.0873 46.3086 31.0286 46.0123 31.0288 45.713C31.0285 45.4138 31.0872 45.1174 31.2016 44.8409C31.316 44.5643 31.4838 44.3131 31.6954 44.1014C31.907 43.8898 32.1582 43.722 32.4348 43.6076C32.7113 43.4932 33.0077 43.4345 33.3069 43.4347C33.6062 43.4345 33.9025 43.4932 34.179 43.6076C34.4555 43.722 34.7068 43.8898 34.9184 44.1014C35.13 44.313 35.2978 44.5642 35.4122 44.8407C35.5266 45.1172 35.5853 45.4136 35.585 45.7128C35.5853 46.0121 35.5266 46.3084 35.4122 46.5849C35.2978 46.8615 35.13 47.1127 34.9184 47.3243C34.7068 47.5359 34.4555 47.7037 34.179 47.8181C33.9025 47.9325 33.6062 47.9914 33.3069 47.9911Z" fill="url(#paint1_linear_29_213)"/>
<defs>
<linearGradient id="paint0_linear_29_213" x1="502.331" y1="467.709" x2="3092.76" y2="3032.3" gradientUnits="userSpaceOnUse">
<stop stop-color="#387EB8"/>
<stop offset="1" stop-color="#366994"/>
</linearGradient>
<linearGradient id="paint1_linear_29_213" x1="754.968" y1="812.635" x2="3536.8" y2="3442.39" gradientUnits="userSpaceOnUse">
<stop stop-color="#FFE052"/>
<stop offset="1" stop-color="#FFC331"/>
</linearGradient>
</defs>
</svg>
