
<svg width="50" height="50" viewBox="0 0 50 50" fill="none" xmlns="http://www.w3.org/2000/svg">
<path d="M49.6584 24.3868L47.5594 23.0874C47.5416 22.8834 47.5217 22.6797 47.4996 22.4761L49.3035 20.7935C49.3937 20.7097 49.4609 20.6042 49.4987 20.487C49.5365 20.3698 49.5436 20.2449 49.5193 20.1242C49.4956 20.0034 49.4414 19.8907 49.3617 19.7969C49.282 19.7031 49.1796 19.6312 49.0643 19.5883L46.7582 18.726C46.7003 18.5269 46.6401 18.3284 46.5775 18.1307L48.016 16.1329C48.0881 16.033 48.1334 15.9164 48.1477 15.7941C48.162 15.6717 48.1447 15.5478 48.0976 15.434C48.0505 15.3202 47.9751 15.2204 47.8785 15.144C47.782 15.0675 47.6675 15.0171 47.5459 14.9973L45.1143 14.6018C45.0197 14.4175 44.9213 14.2358 44.8221 14.0558L45.8438 11.813C45.8952 11.7011 45.917 11.5779 45.9072 11.4551C45.8973 11.3323 45.8561 11.2142 45.7875 11.1119C45.7194 11.0093 45.6261 10.9259 45.5165 10.8697C45.4069 10.8136 45.2848 10.7865 45.1617 10.7912L42.6937 10.8771C42.5663 10.7175 42.4363 10.5598 42.3039 10.4043L42.8711 8.00041C42.8995 7.88052 42.8967 7.75537 42.8629 7.63687C42.8292 7.51837 42.7657 7.41048 42.6785 7.32347C42.5915 7.23637 42.4837 7.17296 42.3653 7.13926C42.2468 7.10555 42.1218 7.10267 42.002 7.1309L39.5986 7.69749C39.4426 7.56521 39.2847 7.43526 39.1248 7.30765L39.2111 4.83993C39.2158 4.7169 39.1887 4.59475 39.1326 4.48515C39.0766 4.37555 38.9933 4.28218 38.8908 4.21396C38.7885 4.14546 38.6703 4.10428 38.5476 4.09437C38.4249 4.08446 38.3016 4.10613 38.1897 4.15732L35.9475 5.17957C35.7666 5.07975 35.5846 4.98209 35.4014 4.8866L35.0049 2.45462C34.985 2.33318 34.9345 2.21882 34.8581 2.12238C34.7817 2.02593 34.6819 1.9506 34.5682 1.90352C34.4545 1.85644 34.3307 1.83916 34.2084 1.85334C34.0862 1.86751 33.9696 1.91266 33.8697 1.98451L31.8705 3.42296C31.6738 3.36046 31.476 3.30011 31.2764 3.24289L30.4141 0.936485C30.3712 0.820941 30.2994 0.718327 30.2055 0.63845C30.1116 0.558573 29.9988 0.504103 29.8779 0.480244C29.7573 0.456504 29.6326 0.463878 29.5156 0.501671C29.3986 0.539463 29.2931 0.606429 29.2092 0.696255L27.5266 2.50149C27.3231 2.47869 27.1193 2.45877 26.9152 2.44173L25.6158 0.342161C25.5511 0.237539 25.4607 0.151193 25.3532 0.0913123C25.2457 0.0314311 25.1247 0 25.0017 0C24.8786 0 24.7576 0.0314311 24.6501 0.0913123C24.5427 0.151193 24.4522 0.237539 24.3875 0.342161L23.0881 2.44173C22.8838 2.45874 22.6798 2.47867 22.4762 2.50149L20.7932 0.696255C20.7093 0.606096 20.6037 0.5389 20.4865 0.50106C20.3694 0.46322 20.2444 0.455996 20.1237 0.480075C20.0029 0.504153 19.8903 0.558734 19.7966 0.638623C19.7029 0.718512 19.6312 0.821052 19.5883 0.936485L18.7262 3.24289C18.5264 3.30011 18.3287 3.36085 18.1314 3.42296L16.1326 1.98451C16.0328 1.91233 15.9161 1.86698 15.7937 1.85279C15.6713 1.8386 15.5473 1.85604 15.4336 1.90346C15.32 1.95065 15.2203 2.02602 15.1439 2.12246C15.0675 2.2189 15.017 2.33322 14.9971 2.45462L14.6006 4.8866C14.417 4.98172 14.2355 5.07957 14.0545 5.17957L11.8121 4.15713C11.7002 4.1059 11.577 4.08423 11.4543 4.09418C11.3316 4.10413 11.2135 4.14537 11.1113 4.21396C11.0088 4.28214 10.9254 4.37549 10.8693 4.48509C10.8131 4.59469 10.786 4.71687 10.7906 4.83993L10.8766 7.30765C10.7169 7.43549 10.5589 7.56545 10.4027 7.69749L7.99941 7.13109C7.87953 7.103 7.75446 7.10592 7.63601 7.13958C7.51757 7.17324 7.40966 7.23653 7.32246 7.32347C7.23523 7.41048 7.17174 7.51837 7.13803 7.63687C7.10432 7.75537 7.10151 7.88052 7.12988 8.00041L7.69609 10.4043C7.56465 10.5599 7.43477 10.7175 7.30723 10.8771L4.83926 10.7912C4.71635 10.7873 4.59448 10.8147 4.48503 10.8707C4.37558 10.9268 4.28215 11.0097 4.21348 11.1117C4.14499 11.214 4.10382 11.3321 4.09387 11.4549C4.08392 11.5776 4.10553 11.7008 4.15664 11.8128L5.17891 14.0558C5.07949 14.2358 4.98125 14.4175 4.88594 14.6018L2.45449 14.9973C2.33299 15.0172 2.21856 15.0677 2.12206 15.1441C2.02556 15.2206 1.95019 15.3204 1.9031 15.4341C1.856 15.5479 1.83875 15.6718 1.85298 15.7941C1.8672 15.9164 1.91243 16.033 1.98438 16.1329L3.42285 18.1309C3.36035 18.3281 3.29961 18.5262 3.24219 18.726L0.935938 19.5883C0.820763 19.6315 0.718533 19.7035 0.638925 19.7973C0.559316 19.8911 0.504962 20.0037 0.481006 20.1243C0.45705 20.245 0.464285 20.3698 0.502026 20.4869C0.539766 20.604 0.606765 20.7095 0.69668 20.7935L2.50078 22.4759C2.47832 22.679 2.4584 22.8835 2.44121 23.0874L0.341797 24.3868C0.23719 24.4516 0.150877 24.542 0.0910547 24.6495C0.0312328 24.757 -0.00011103 24.878 2.9552e-07 25.0011C2.9552e-07 25.2518 0.129492 25.4841 0.341992 25.6149L2.44121 26.9143C2.4584 27.1188 2.47832 27.3229 2.50078 27.5258L0.696485 29.2088C0.606409 29.2927 0.539269 29.3982 0.501439 29.5153C0.463608 29.6324 0.456344 29.7573 0.480335 29.878C0.504326 29.9987 0.558776 30.1113 0.638516 30.205C0.718255 30.2988 0.820636 30.3706 0.935938 30.4137L3.24219 31.2759C3.29961 31.4756 3.36035 31.6738 3.42285 31.8711L1.98438 33.8693C1.9123 33.9691 1.86697 34.0858 1.85271 34.2081C1.83845 34.3305 1.85573 34.4544 1.90291 34.5682C1.95009 34.682 2.0256 34.7818 2.12225 34.8581C2.21889 34.9345 2.33347 34.9848 2.45508 35.0044L4.88613 35.3999C4.98125 35.5843 5.07871 35.7659 5.1791 35.9468L4.15664 38.1889C4.10544 38.3009 4.08378 38.4241 4.09373 38.5469C4.10368 38.6696 4.1449 38.7878 4.21348 38.8901C4.28166 38.9925 4.37499 39.0758 4.48455 39.1319C4.59412 39.1881 4.71625 39.2151 4.83926 39.2106L7.30605 39.1242C7.43477 39.2846 7.56426 39.4418 7.69609 39.598L7.12988 42.0023C7.10153 42.122 7.10435 42.2469 7.13807 42.3652C7.17178 42.4835 7.23527 42.5911 7.32246 42.6779C7.40941 42.7652 7.51732 42.8287 7.63586 42.8623C7.7544 42.8959 7.87958 42.8985 7.99941 42.8699L10.4027 42.3039C10.559 42.4367 10.7172 42.5656 10.8768 42.6925L10.7908 45.161C10.7864 45.284 10.8135 45.4061 10.8696 45.5157C10.9256 45.6253 11.0088 45.7187 11.1112 45.787C11.2135 45.8554 11.3317 45.8964 11.4543 45.9062C11.577 45.916 11.7002 45.8943 11.8121 45.8431L14.0545 44.8214C14.235 44.9217 14.4171 45.0193 14.6006 45.1142L14.9971 47.5448C15.0167 47.6664 15.0671 47.7809 15.1435 47.8775C15.2199 47.9741 15.3198 48.0495 15.4336 48.0965C15.5474 48.1436 15.6712 48.161 15.7936 48.1468C15.9159 48.1327 16.0326 48.0877 16.1326 48.0159L18.1305 46.5764C18.3277 46.6389 18.526 46.7001 18.7256 46.7575L19.5879 49.0629C19.6308 49.1783 19.7026 49.2807 19.7965 49.3605C19.8903 49.4402 20.003 49.4945 20.1238 49.5182C20.2445 49.5425 20.3694 49.5354 20.4865 49.4976C20.6037 49.4598 20.7091 49.3925 20.7928 49.3022L22.4758 47.4979C22.6789 47.5213 22.8832 47.5409 23.0877 47.559L24.3871 49.6582C24.4519 49.7627 24.5423 49.8489 24.6497 49.9087C24.7571 49.9685 24.878 49.9999 25.001 50C25.124 50 25.2449 49.9686 25.3524 49.9088C25.4599 49.8489 25.5504 49.7627 25.6152 49.6582L26.9146 47.559C27.1191 47.5409 27.3232 47.5213 27.5262 47.4979L29.2088 49.3022C29.2924 49.3924 29.3979 49.4597 29.515 49.4975C29.6321 49.5353 29.7569 49.5424 29.8775 49.5182C29.9983 49.4944 30.111 49.44 30.2048 49.3603C30.2986 49.2806 30.3705 49.1782 30.4135 49.0629L31.2758 46.7575C31.4754 46.7001 31.6738 46.6389 31.8711 46.5764L33.8693 48.0159C33.9693 48.0877 34.086 48.1329 34.2083 48.147C34.3306 48.1611 34.4544 48.1437 34.5682 48.0965C34.6819 48.0494 34.7816 47.9739 34.858 47.8773C34.9344 47.7808 34.9848 47.6663 35.0045 47.5448L35.401 45.1142C35.5844 45.019 35.7658 44.9202 35.9469 44.8212L38.1893 45.8431C38.3012 45.8944 38.4244 45.9163 38.5471 45.9066C38.6699 45.8968 38.7881 45.8558 38.8906 45.7874C38.993 45.7191 39.0762 45.6256 39.1322 45.5159C39.1883 45.4063 39.2153 45.2841 39.2107 45.161L39.1248 42.6927C39.2846 42.5656 39.4424 42.436 39.598 42.3039L42.0016 42.8699C42.2457 42.9273 42.5016 42.8562 42.6779 42.6779C42.7651 42.5911 42.8286 42.4835 42.8623 42.3652C42.896 42.2469 42.8989 42.122 42.8705 42.0023L42.3045 39.598C42.4363 39.4418 42.5662 39.2846 42.6932 39.1242L45.1611 39.2106C45.2841 39.2152 45.4063 39.1882 45.5158 39.1321C45.6254 39.076 45.7188 38.9927 45.7869 38.8903C45.8556 38.7879 45.8969 38.6697 45.9067 38.5468C45.9166 38.424 45.8948 38.3007 45.8434 38.1887L44.8215 35.9469C44.9213 35.7659 45.0193 35.5843 45.1139 35.4001L47.5455 35.0044C47.6671 34.9849 47.7816 34.9345 47.8781 34.858C47.9746 34.7815 48.0499 34.6816 48.0967 34.5677C48.1438 34.454 48.1611 34.3302 48.1469 34.2079C48.1327 34.0857 48.0875 33.9691 48.0156 33.8693L46.5772 31.8712C46.6393 31.6738 46.7 31.4756 46.7578 31.2759L49.0637 30.4137C49.1791 30.3707 49.2816 30.2989 49.3613 30.205C49.441 30.1111 49.4953 29.9984 49.5189 29.8775C49.5433 29.7569 49.5362 29.632 49.4983 29.5149C49.4605 29.3978 49.3932 29.2924 49.3029 29.2088L47.4992 27.5258C47.5211 27.3227 47.5412 27.1184 47.5588 26.9145L49.658 25.6149C49.7627 25.5503 49.849 25.4599 49.9089 25.3525C49.9688 25.245 50.0001 25.1241 50 25.0011C50 24.7509 49.8711 24.5183 49.6584 24.3868ZM35.6092 41.7998C34.8076 41.6269 34.2979 40.8369 34.4699 40.0328C34.6414 39.2297 35.4309 38.7186 36.2322 38.8914C37.0338 39.0631 37.5443 39.8545 37.3725 40.657C37.2006 41.4597 36.4104 41.9714 35.6092 41.7998ZM34.8959 36.9758C34.722 36.9385 34.5424 36.9359 34.3674 36.9681C34.1925 37.0002 34.0256 37.0666 33.8763 37.1633C33.727 37.26 33.5982 37.3852 33.4974 37.5317C33.3965 37.6783 33.3255 37.8432 33.2885 38.0172L32.5432 41.4951C30.2434 42.5388 27.6896 43.1187 25 43.1187C22.2488 43.1187 19.6395 42.5101 17.2988 41.4218L16.5539 37.9442C16.3973 37.2124 15.6777 36.7462 14.9469 36.9032L11.8766 37.5625C11.3059 36.9752 10.7756 36.3501 10.2891 35.6915H25.2285C25.3975 35.6915 25.5102 35.6608 25.5102 35.5069V30.2225C25.5102 30.0687 25.3975 30.0381 25.2283 30.0381H20.8594V26.6885H25.585C26.0162 26.6885 27.8914 26.8116 28.4908 29.2084C28.6787 29.9455 29.0908 32.3431 29.3729 33.1107C29.6537 33.9716 30.7973 35.6913 32.016 35.6913H39.4604C39.5449 35.6913 39.6352 35.6817 39.7303 35.6645C39.2138 36.366 38.6479 37.0298 38.0371 37.6508L34.8959 36.9758ZM14.2338 41.7271C13.432 41.9002 12.6428 41.389 12.4703 40.5859C12.2988 39.7814 12.8086 38.9918 13.6102 38.819C13.9955 38.7367 14.3977 38.8108 14.7284 39.0251C15.0591 39.2393 15.2911 39.5762 15.3734 39.9615C15.5449 40.7642 15.035 41.5552 14.2338 41.7271ZM8.56641 18.7471C8.89902 19.4975 8.56055 20.3769 7.81113 20.709C7.06172 21.042 6.18457 20.7031 5.85215 19.9521C5.69235 19.5918 5.68214 19.1828 5.82376 18.8149C5.96538 18.447 6.24724 18.1504 6.60742 17.9903C6.78571 17.9112 6.97785 17.868 7.17283 17.8633C7.36781 17.8585 7.56182 17.8922 7.74376 17.9625C7.9257 18.0328 8.09201 18.1382 8.23316 18.2728C8.37432 18.4074 8.48756 18.5687 8.56641 18.7471ZM6.82461 22.8759L10.023 21.4546C10.3514 21.3086 10.6083 21.0382 10.7374 20.7028C10.8664 20.3674 10.8571 19.9945 10.7113 19.666L10.0527 18.1766H12.6434V29.8537H7.4166C6.95329 28.2227 6.71888 26.5353 6.72012 24.8397C6.72012 24.1761 6.75586 23.5204 6.82461 22.8759ZM20.8602 21.7418V18.2998H27.0293C27.348 18.2998 29.2793 18.6682 29.2793 20.1123C29.2793 21.3113 27.798 21.7412 26.5799 21.7412L20.8602 21.7418ZM43.2805 24.8397C43.2805 25.2964 43.2637 25.7483 43.2303 26.1967H41.3547C41.167 26.1967 41.0914 26.3202 41.0914 26.504V27.3653C41.0914 29.3926 39.9482 29.8336 38.9465 29.9459C37.9926 30.0533 36.9348 29.5465 36.8045 28.9627C36.2416 25.7975 35.3039 25.1216 33.823 23.9534C35.6609 22.7865 37.573 21.0648 37.573 18.7602C37.573 16.2719 35.8672 14.7046 34.7043 13.936C33.073 12.8607 31.2668 12.645 30.7795 12.645H11.3826C14.0129 9.70956 17.5777 7.63011 21.6096 6.87348L23.8959 9.27187C24.0186 9.40061 24.1654 9.5039 24.328 9.57581C24.4907 9.64772 24.6659 9.68684 24.8437 9.69094C25.0215 9.69504 25.1983 9.66404 25.3641 9.5997C25.5298 9.53536 25.6813 9.43896 25.8098 9.31601L28.368 6.86918C33.7283 7.86721 38.2668 11.2039 40.8822 15.7817L39.1309 19.7373C38.8285 20.4219 39.1371 21.2224 39.8197 21.5257L43.1916 23.0234C43.2498 23.622 43.2805 24.2267 43.2805 24.8397ZM23.8969 4.83309C24.4893 4.26572 25.4289 4.28818 25.9961 4.88133C26.5621 5.47624 26.5406 6.41685 25.9469 6.98383C25.3545 7.5514 24.4148 7.52933 23.8477 6.935C23.5759 6.64953 23.4284 6.26791 23.4377 5.87387C23.4469 5.47983 23.612 5.10553 23.8969 4.83309ZM41.2764 18.8192C41.3552 18.6408 41.4684 18.4797 41.6095 18.3451C41.7506 18.2105 41.9169 18.1051 42.0988 18.0349C42.2808 17.9646 42.4747 17.9309 42.6697 17.9358C42.8646 17.9406 43.0567 17.9838 43.235 18.0629C43.9846 18.3953 44.3228 19.2744 43.9902 20.0248C43.9115 20.2033 43.7983 20.3644 43.6571 20.4991C43.516 20.6337 43.3497 20.7392 43.1677 20.8095C42.9858 20.8798 42.7917 20.9136 42.5967 20.9088C42.4017 20.904 42.2095 20.8608 42.0312 20.7816C41.2826 20.449 40.9443 19.5707 41.2764 18.8192Z" fill="black"/>
</svg>
