<svg width="78" height="82" viewBox="0 0 78 82" fill="none" xmlns="http://www.w3.org/2000/svg">
<path d="M55.1335 0L50.1107 56.2681L27.533 62.5272L5.01758 56.2767L0 0H55.1335Z" fill="#E44D26"/>
<path d="M27.5667 57.7429L45.8106 52.6851L50.1027 4.60138H27.5667V57.7429Z" fill="#F16529"/>
<path d="M17.8026 18.4058H27.5667V11.5037H10.2595L10.4246 13.3553L12.1211 32.3758H27.5667V25.4736H18.4334L17.8026 18.4058ZM19.3582 35.8269H12.4295L13.3964 46.6643L27.535 50.589L27.5667 50.5803V43.3992L27.5365 43.4072L19.8496 41.3316L19.3582 35.8269Z" fill="#EBEBEB"/>
<path d="M27.5429 32.3758H36.0422L35.2408 41.3273L27.5427 43.405V50.5857L41.6925 46.6643L41.7963 45.4981L43.4184 27.3271L43.5868 25.4736H27.5429V32.3758ZM27.5429 18.3889V18.4058H44.2148L44.3531 16.8545L44.6678 13.3553L44.8327 11.5037H27.5429V18.3889Z" fill="white"/>
<path d="M36.8838 76.881L32.7921 30.9703H77.7682L73.6711 76.8737L55.2528 81.9802L36.8838 76.881Z" fill="#1572B6"/>
<path d="M55.2802 78.0779L70.1641 73.9515L73.6656 34.7249H55.2802V78.0779Z" fill="#33A9DC"/>
<path d="M55.2802 51.3578H62.7313L63.245 45.5919H55.2802V39.9608H69.399L69.2642 41.471L67.8814 56.989H55.2802V51.3578Z" fill="white"/>
<path d="M55.3148 65.9813L55.2893 65.9886L49.0187 64.2943L48.6179 59.8036H42.9649L43.7538 68.6448L55.2875 71.8475L55.3148 71.8402V65.9813Z" fill="#EBEBEB"/>
<path d="M62.2521 56.7503L61.5744 64.2907L55.2947 65.9849V71.8438L66.8376 68.6447L66.9232 67.6938L67.9015 56.7503H62.2521Z" fill="white"/>
<path d="M55.3002 39.9608V45.5919H41.6988L41.5859 44.3257L41.329 41.471L41.1942 39.9608H55.3002ZM55.2802 51.3578V56.989H49.088L48.975 55.7228L48.72 52.8681L48.5851 51.3578H55.2802Z" fill="#EBEBEB"/>
</svg>
