<svg width="102" height="106" viewBox="0 0 102 106" fill="none" xmlns="http://www.w3.org/2000/svg">
<path d="M101.713 10.0705L69.7968 67.1411C69.6469 67.4095 69.4284 67.6333 69.1635 67.7894C68.8987 67.9456 68.5972 68.0285 68.2897 68.0298C67.9823 68.031 67.6801 67.9505 67.4141 67.7965C67.148 67.6424 66.9277 67.4205 66.7757 67.1533L34.2284 10.0754C34.0648 9.78901 33.9862 9.46189 34.002 9.13242C34.0177 8.80296 34.1271 8.48481 34.3173 8.21533C34.5075 7.94584 34.7706 7.7362 35.0758 7.61099C35.3809 7.48578 35.7155 7.45021 36.0401 7.50844L67.9899 13.2204C68.1931 13.2569 68.4012 13.2569 68.6043 13.2204L99.8863 7.51815C100.21 7.45906 100.543 7.49312 100.848 7.61637C101.153 7.73962 101.416 7.94698 101.608 8.21426C101.799 8.48154 101.911 8.79773 101.929 9.12597C101.948 9.4542 101.873 9.78338 101.713 10.0705Z" fill="url(#paint0_linear_430_131)"/>
<path d="M83.2071 0.0188848L59.592 4.64524C59.403 4.68216 59.2316 4.78097 59.105 4.92609C58.9783 5.0712 58.9036 5.25436 58.8926 5.44666L57.4403 29.9846C57.4323 30.1192 57.4558 30.2538 57.509 30.3778C57.5621 30.5017 57.6434 30.6115 57.7465 30.6985C57.8495 30.7855 57.9714 30.8473 58.1025 30.8789C58.2336 30.9106 58.3702 30.9112 58.5016 30.8807L65.0757 29.3629C65.2173 29.3301 65.3649 29.3336 65.5048 29.3728C65.6448 29.412 65.7727 29.4858 65.8766 29.5874C65.9806 29.689 66.0574 29.815 66.0999 29.954C66.1424 30.093 66.1493 30.2405 66.1199 30.3829L64.1674 39.9489C64.1373 40.0961 64.1459 40.2487 64.1926 40.3916C64.2392 40.5345 64.3222 40.6628 64.4334 40.764C64.5446 40.8651 64.6801 40.9356 64.8268 40.9686C64.9735 41.0015 65.1262 40.9957 65.2699 40.9518L69.3305 39.7181C69.4744 39.6741 69.6274 39.6683 69.7744 39.7013C69.9213 39.7344 70.0571 39.8051 70.1683 39.9066C70.2796 40.008 70.3625 40.1367 70.4089 40.28C70.4553 40.4232 70.4636 40.5761 70.433 40.7236L67.3269 55.7489C67.1326 56.6887 68.3833 57.2012 68.9055 56.3973L69.2527 55.8582L88.4989 17.4509C88.5711 17.3062 88.6014 17.1442 88.5864 16.9831C88.5714 16.8221 88.5116 16.6684 88.4138 16.5396C88.3161 16.4107 88.1842 16.3118 88.0331 16.254C87.8821 16.1961 87.7179 16.1817 87.559 16.2124L80.7907 17.5165C80.645 17.5444 80.4946 17.5344 80.3539 17.4875C80.2131 17.4407 80.0868 17.3585 79.9869 17.2489C79.887 17.1392 79.8169 17.0058 79.7833 16.8613C79.7497 16.7168 79.7537 16.5661 79.795 16.4236L84.2101 1.1093C84.2517 0.966362 84.2558 0.815122 84.222 0.670142C84.1882 0.525162 84.1176 0.391328 84.0171 0.281529C83.9166 0.17173 83.7895 0.0896652 83.648 0.043239C83.5066 -0.00318717 83.3556 -0.0124107 83.2095 0.0164564L83.2071 0.0188848Z" fill="url(#paint1_linear_430_131)"/>
<path d="M55.1335 24L50.1107 80.2681L27.533 86.5272L5.01758 80.2767L0 24H55.1335Z" fill="#E44D26"/>
<path d="M27.5667 81.743L45.8106 76.6852L50.1027 28.6014H27.5667V81.743Z" fill="#F16529"/>
<path d="M17.8026 42.4058H27.5667V35.5037H10.2595L10.4246 37.3553L12.1211 56.3758H27.5667V49.4736H18.4334L17.8026 42.4058ZM19.3582 59.8269H12.4295L13.3964 70.6643L27.535 74.589L27.5667 74.5803V67.3992L27.5365 67.4072L19.8497 65.3316L19.3582 59.8269Z" fill="#EBEBEB"/>
<path d="M27.5429 56.3758H36.0422L35.2408 65.3273L27.5427 67.405V74.5857L41.6925 70.6643L41.7963 69.4981L43.4184 51.3271L43.5868 49.4736H27.5429V56.3758ZM27.5429 42.3889V42.4058H44.2148L44.3531 40.8545L44.6678 37.3553L44.8327 35.5037H27.5429V42.3889Z" fill="white"/>
<path d="M36.8838 100.881L32.7921 54.9703H77.7682L73.6711 100.874L55.2528 105.98L36.8838 100.881Z" fill="#1572B6"/>
<path d="M55.2802 102.078L70.1641 97.9516L73.6656 58.725H55.2802V102.078Z" fill="#33A9DC"/>
<path d="M55.2802 75.3579H62.7313L63.245 69.5919H55.2802V63.9608H69.399L69.2642 65.4711L67.8814 80.989H55.2802V75.3579Z" fill="white"/>
<path d="M55.3148 89.9814L55.2893 89.9887L49.0187 88.2944L48.6179 83.8037H42.9649L43.7537 92.6448L55.2874 95.8475L55.3148 95.8402V89.9814Z" fill="#EBEBEB"/>
<path d="M62.2521 80.7504L61.5744 88.2907L55.2947 89.985V95.8438L66.8376 92.6448L66.9232 91.6938L67.9015 80.7504H62.2521Z" fill="white"/>
<path d="M55.3002 63.9608V69.5919H41.6988L41.5859 68.3258L41.329 65.4711L41.1942 63.9608H55.3002ZM55.2802 75.3579V80.989H49.088L48.975 79.7229L48.72 76.8681L48.5852 75.3579H55.2802Z" fill="#EBEBEB"/>
<defs>
<linearGradient id="paint0_linear_430_131" x1="33.4331" y1="5.46813" x2="73.1523" y2="59.4098" gradientUnits="userSpaceOnUse">
<stop stop-color="#41D1FF"/>
<stop offset="1" stop-color="#BD34FE"/>
</linearGradient>
<linearGradient id="paint1_linear_430_131" x1="66.1539" y1="1.27391" x2="73.3389" y2="50.5622" gradientUnits="userSpaceOnUse">
<stop stop-color="#FFEA83"/>
<stop offset="0.083" stop-color="#FFDD35"/>
<stop offset="1" stop-color="#FFA800"/>
</linearGradient>
</defs>
</svg>
