<svg width="54" height="50" viewBox="0 0 54 50" fill="none" xmlns="http://www.w3.org/2000/svg">
<path d="M27.1965 8.16093C27.0323 8.00382 26.8137 7.91614 26.5865 7.91614C26.3592 7.91614 26.1407 8.00382 25.9764 8.16093L5.66757 27.5619C5.58132 27.6444 5.5127 27.7435 5.46587 27.8533C5.41904 27.9631 5.39496 28.0813 5.39509 28.2006L5.39178 46.4091C5.39178 47.3453 5.7637 48.2432 6.42571 48.9052C7.08773 49.5672 7.98561 49.9391 8.92184 49.9391H19.523C19.9912 49.9391 20.4401 49.7532 20.7711 49.4222C21.1021 49.0912 21.2881 48.6422 21.2881 48.1741V33.1714C21.2881 32.9373 21.381 32.7128 21.5465 32.5473C21.7121 32.3818 21.9365 32.2889 22.1706 32.2889H30.9957C31.2298 32.2889 31.4542 32.3818 31.6198 32.5473C31.7853 32.7128 31.8782 32.9373 31.8782 33.1714V48.1741C31.8782 48.6422 32.0642 49.0912 32.3952 49.4222C32.7262 49.7532 33.1751 49.9391 33.6433 49.9391H44.24C45.1763 49.9391 46.0742 49.5672 46.7362 48.9052C47.3982 48.2432 47.7701 47.3453 47.7701 46.4091V28.2006C47.7702 28.0813 47.7462 27.9631 47.6993 27.8533C47.6525 27.7435 47.5839 27.6444 47.4976 27.5619L27.1965 8.16093Z" fill="white"/>
<path d="M52.4971 23.9216L44.2456 16.0275V4.04849C44.2456 3.58037 44.0596 3.13143 43.7286 2.80042C43.3976 2.46942 42.9487 2.28346 42.4806 2.28346H37.1855C36.7174 2.28346 36.2684 2.46942 35.9374 2.80042C35.6064 3.13143 35.4205 3.58037 35.4205 4.04849V7.57854L29.0311 1.46934C28.4332 0.864819 27.544 0.518433 26.5832 0.518433C25.6257 0.518433 24.7387 0.864819 24.1408 1.47044L0.67699 23.9194C-0.00916421 24.5813 -0.0952093 25.6701 0.529169 26.3871C0.68596 26.5681 0.87794 26.7153 1.09342 26.8197C1.30891 26.9242 1.54339 26.9837 1.7826 26.9946C2.02181 27.0056 2.26075 26.9677 2.48487 26.8834C2.70899 26.799 2.9136 26.67 3.08625 26.5041L25.9765 4.63095C26.1407 4.47384 26.3592 4.38615 26.5865 4.38615C26.8138 4.38615 27.0323 4.47384 27.1965 4.63095L50.0889 26.5041C50.4262 26.8274 50.8778 27.0039 51.345 26.9948C51.8121 26.9857 52.2566 26.7918 52.5809 26.4555C53.2583 25.7539 53.202 24.5956 52.4971 23.9216Z" fill="white"/>
</svg>
